<?xml version="1.0" standalone="no"?>
<!DOCTYPE svg PUBLIC "-//W3C//DTD SVG 20010904//EN"
 "http://www.w3.org/TR/2001/REC-SVG-20010904/DTD/svg10.dtd">
<svg version="1.0" xmlns="http://www.w3.org/2000/svg"
 width="300.000000pt" height="325.000000pt" viewBox="0 0 300.000000 325.000000"
 preserveAspectRatio="xMidYMid meet">
<metadata>
Created by potrace 1.10, written by Peter Selinger 2001-2011
</metadata>
<g transform="translate(0.000000,325.000000) scale(0.100000,-0.100000)"
fill="#000000" stroke="none">
<path d="M1400 2816 c-176 -40 -311 -185 -342 -369 -30 -180 79 -380 250 -461
l62 -30 0 -84 0 -84 -75 4 -74 3 -28 -62 -28 -62 -234 176 c-149 111 -241 187
-251 206 -26 48 -81 87 -134 95 -41 6 -49 12 -79 57 -36 56 -69 69 -87 35 -9
-16 -7 -27 7 -50 21 -36 37 -40 21 -6 -6 14 -8 32 -4 42 6 16 8 16 25 0 11
-10 25 -30 31 -46 10 -25 27 -37 60 -45 79 -19 137 -55 124 -76 -4 -7 -3 -9 3
-6 6 4 16 -7 23 -23 7 -16 21 -32 31 -35 11 -4 17 -11 13 -16 -3 -5 -2 -8 3
-7 15 5 213 -145 206 -156 -3 -6 -3 -8 1 -4 8 7 33 -9 129 -80 31 -23 57 -46
57 -51 0 -4 6 -8 13 -9 6 0 22 -4 34 -7 19 -6 26 0 50 51 l28 59 70 3 c38 2
73 9 77 15 4 7 8 46 8 88 0 82 -8 98 -62 115 -43 14 -139 87 -133 102 3 7 1
10 -4 7 -11 -6 -61 55 -61 73 0 7 -4 12 -9 12 -4 0 -17 26 -27 58 -24 74 -24
208 -1 274 20 53 81 151 90 142 3 -3 8 4 12 15 3 12 11 19 16 16 5 -4 9 -1 9
5 0 6 5 8 10 5 6 -4 9 -1 8 7 -2 7 31 29 77 53 79 39 82 40 190 40 106 0 113
-1 187 -37 99 -47 160 -109 206 -208 86 -186 35 -385 -132 -515 -31 -23 -68
-46 -83 -50 -15 -3 -34 -11 -40 -17 -18 -15 -18 -187 0 -193 6 -2 41 -6 77 -7
44 -3 64 -7 63 -16 -2 -7 0 -12 5 -12 4 0 16 -16 26 -35 21 -38 44 -44 73 -21
55 45 119 89 149 103 19 9 34 21 34 27 1 13 84 76 100 76 5 0 10 4 10 8 0 4
18 19 40 32 22 14 40 29 40 34 0 4 7 5 16 2 8 -3 12 -2 9 3 -3 5 13 22 34 38
22 15 42 38 45 50 15 55 89 113 147 113 31 0 79 40 79 66 0 19 24 34 40 24 11
-7 12 -14 2 -35 -17 -38 -14 -44 8 -15 23 30 26 63 5 80 -22 18 -41 6 -75 -48
-28 -45 -34 -50 -76 -55 -56 -6 -110 -47 -139 -106 -18 -34 -64 -73 -264 -222
-133 -99 -244 -179 -246 -177 -2 1 -14 25 -27 52 l-23 50 -72 -3 -73 -2 0 89
c0 90 0 90 28 97 43 10 118 63 167 117 158 176 150 435 -19 603 -115 115 -265
157 -426 121z"/>
<path d="M1255 2630 c3 -4 -4 -18 -15 -30 -25 -29 -25 -42 0 -65 11 -10 20
-22 20 -27 0 -4 -9 -16 -20 -25 -26 -23 -25 -45 3 -71 27 -26 50 -28 67 -7 7
8 20 15 30 15 10 0 23 -7 30 -15 14 -17 60 -20 60 -4 0 5 4 8 9 5 4 -3 13 6
19 19 12 25 7 55 -9 55 -15 0 -10 57 6 70 20 17 19 25 -9 54 -26 29 -64 34
-73 10 -3 -8 -12 -13 -20 -10 -8 3 -11 1 -8 -4 11 -18 -11 -11 -29 9 -16 18
-71 36 -61 21z m120 -40 l29 30 25 -25 26 -25 -32 -31 -31 -31 32 -29 31 -28
-25 -26 -26 -25 -29 30 -29 30 -32 -31 -32 -31 -24 25 -25 25 31 32 31 31 -33
30 -33 29 28 25 28 24 31 -30 30 -29 29 30z"/>
<path d="M1542 2607 c-12 -13 -22 -29 -22 -37 0 -8 10 -24 22 -37 l21 -23 -21
-23 c-28 -30 -28 -48 1 -75 30 -28 54 -28 77 0 l17 22 32 -27 c36 -30 46 -28
80 14 l24 30 -27 28 -27 28 26 32 27 31 -24 29 c-25 33 -59 39 -78 16 -7 -8
-17 -12 -23 -8 -6 3 -7 1 -3 -5 12 -20 -10 -13 -29 8 -24 26 -47 25 -73 -3z
m67 -19 l30 -33 33 33 34 32 24 -25 24 -26 -31 -30 -31 -31 32 -28 31 -28 -24
-26 -25 -26 -32 31 -32 31 -31 -33 -30 -34 -27 27 -27 26 34 31 34 31 -34 28
-34 29 24 25 c13 14 25 26 27 27 1 1 15 -14 31 -31z"/>
<path d="M1416 2295 c-22 -8 -43 -12 -48 -9 -5 3 -7 2 -6 -3 2 -4 -10 -20 -25
-35 -50 -50 -30 -121 46 -160 34 -17 54 -20 122 -16 67 3 87 9 120 31 22 15
35 27 30 27 -5 0 -4 5 3 12 15 15 16 63 2 89 -6 11 -30 31 -53 46 -50 31 -130
39 -191 18z m176 -32 c17 -10 40 -30 52 -46 20 -27 20 -28 2 -61 -31 -57 -131
-89 -213 -67 -99 27 -135 103 -72 155 17 14 43 29 57 32 15 3 32 8 37 10 22 8
109 -6 137 -23z"/>
<path d="M2664 2215 l-29 -26 32 15 c43 21 59 20 59 -5 0 -14 -13 -27 -38 -40
-21 -11 -38 -23 -38 -28 0 -12 75 27 96 50 14 15 16 24 8 37 -18 28 -58 26
-90 -3z"/>
<path d="M308 2193 c-19 -5 -31 -33 -23 -54 6 -16 105 -71 105 -59 0 4 -17 19
-38 33 -61 40 -45 78 18 42 36 -20 47 -18 19 4 -35 27 -62 38 -81 34z"/>
<path d="M2693 2125 c-46 -20 -41 -24 13 -12 36 9 47 8 54 -3 12 -19 7 -25
-40 -40 -48 -16 -56 -25 -40 -45 8 -10 31 -15 61 -15 27 0 49 -3 49 -7 -1 -22
-21 -33 -69 -34 -50 -2 -54 -4 -82 -46 -17 -23 -34 -43 -39 -43 -17 0 -11 -35
10 -58 22 -23 25 -38 10 -47 -5 -3 -28 12 -49 34 -22 23 -49 41 -60 41 -11 0
-40 -15 -64 -34 -25 -19 -48 -32 -51 -29 -3 4 -6 2 -6 -4 0 -17 -99 -85 -112
-77 -7 4 -8 3 -4 -4 4 -6 -6 -19 -21 -29 -15 -10 -32 -23 -38 -29 -19 -21
-175 -134 -184 -134 -6 0 -14 -6 -18 -13 -4 -8 -20 -22 -35 -32 -16 -9 -28
-23 -28 -31 0 -7 23 -69 51 -136 28 -68 51 -130 52 -138 1 -13 -61 -166 -128
-315 -12 -27 -48 -111 -79 -186 l-56 -136 0 -181 c0 -178 0 -182 26 -219 20
-29 25 -48 22 -80 -4 -49 7 -57 17 -13 8 36 -9 91 -35 115 -18 17 -20 32 -20
190 0 164 1 175 26 231 15 33 77 179 139 326 l114 266 -54 129 c-30 70 -55
133 -55 139 0 15 523 404 543 404 8 0 30 -18 47 -40 32 -41 57 -49 78 -28 17
17 15 36 -9 69 l-21 29 31 36 c17 19 31 39 31 44 0 6 27 10 59 10 41 0 65 5
75 16 38 37 10 64 -67 64 -65 0 -69 14 -8 25 46 8 64 25 59 57 -4 29 -47 35
-95 13z"/>
<path d="M260 2082 c-19 -16 -21 -22 -11 -40 6 -12 29 -26 54 -33 66 -19 68
-30 5 -28 -78 3 -111 -26 -72 -65 10 -11 34 -16 75 -16 32 0 59 -4 59 -10 0
-5 14 -25 31 -44 l31 -36 -21 -26 c-25 -31 -27 -57 -6 -74 21 -18 50 -4 79 39
22 32 31 37 54 33 15 -2 136 -86 268 -185 l242 -180 -55 -116 c-30 -64 -57
-123 -60 -132 -2 -8 61 -157 141 -330 l146 -314 0 -173 c0 -168 -1 -174 -25
-210 -26 -38 -36 -124 -15 -137 6 -4 10 14 10 47 0 42 6 62 25 88 24 33 25 38
25 209 l0 175 -46 100 c-25 56 -58 128 -74 161 -15 33 -56 121 -90 195 -33 74
-66 145 -72 157 -8 17 -5 32 15 75 79 169 99 228 78 228 -4 0 -29 18 -54 40
-25 22 -50 40 -56 40 -6 0 -11 5 -11 10 0 6 -6 10 -14 10 -8 0 -16 4 -18 8 -1
5 -30 28 -63 52 -33 24 -66 49 -72 56 -7 7 -28 22 -48 34 -19 12 -32 27 -29
32 4 7 2 8 -4 4 -6 -3 -35 12 -64 34 -64 48 -103 52 -142 14 -14 -15 -26 -31
-26 -35 0 -5 -9 -9 -20 -9 -11 0 -20 5 -20 11 0 6 9 22 20 36 25 32 25 48 2
65 -10 7 -28 27 -40 45 -20 29 -29 32 -79 35 -44 2 -57 7 -59 21 -2 17 11 21
67 17 27 -1 55 23 44 39 -3 6 -23 15 -44 21 -39 10 -59 36 -43 52 4 4 29 2 55
-6 53 -16 60 -13 20 7 -52 27 -69 28 -93 9z"/>
<path d="M284 2052 c4 -3 14 -7 22 -8 9 -1 13 0 10 4 -4 3 -14 7 -22 8 -9 1
-13 0 -10 -4z"/>
<path d="M1526 1525 c-14 -11 -22 -11 -36 -2 -14 8 -25 8 -44 -1 -29 -13 -35
-46 -10 -60 14 -8 14 -10 0 -21 -21 -18 -20 -47 2 -57 22 -10 72 -12 66 -2 -3
4 -1 8 5 8 5 0 13 -4 16 -10 11 -17 43 -11 59 12 14 20 14 24 1 45 -9 13 -11
23 -6 23 15 0 22 32 9 47 -21 26 -42 32 -62 18z m-34 -25 c12 -19 13 -19 35 2
22 21 24 21 41 4 16 -16 16 -18 -5 -35 l-22 -18 21 -21 c20 -19 20 -22 4 -37
-15 -16 -18 -15 -35 7 l-19 23 -24 -22 c-22 -21 -25 -21 -40 -6 -15 15 -15 17
5 34 l22 19 -22 19 c-20 17 -20 19 -5 35 21 21 29 20 44 -4z"/>
<path d="M1438 1261 c-19 -19 -14 -66 6 -54 6 4 3 -5 -7 -21 -18 -27 -18 -28
4 -49 19 -18 26 -19 53 -9 20 8 32 9 34 2 6 -17 48 -11 67 10 17 19 17 21 0
40 -17 19 -17 21 0 40 14 16 15 22 5 34 -17 22 -49 29 -65 16 -10 -8 -19 -8
-34 -1 -27 15 -43 13 -63 -8z m97 -12 c18 18 22 18 40 5 20 -15 20 -15 -4 -35
l-23 -19 23 -19 c24 -20 24 -20 4 -35 -18 -13 -22 -13 -40 5 -21 18 -21 18
-40 -1 -18 -17 -22 -17 -40 -4 -20 15 -20 15 4 35 l23 19 -23 19 c-24 20 -24
20 -4 35 18 13 22 13 40 -4 19 -19 19 -19 40 -1z"/>
<path d="M1437 1010 c-20 -19 -16 -60 5 -60 6 0 4 -8 -5 -18 -21 -23 -21 -36
-2 -52 8 -7 12 -16 10 -21 -3 -4 11 -2 32 5 31 11 43 11 70 -1 29 -12 32 -11
26 4 -5 12 -2 15 9 10 12 -4 15 0 13 18 -1 14 -7 31 -14 38 -9 11 -8 17 4 27
8 7 15 22 15 33 0 11 -3 17 -7 14 -3 -4 -12 1 -19 10 -10 15 -15 16 -37 4 -18
-10 -30 -10 -45 -2 -27 14 -33 13 -55 -9z m55 -17 c17 -15 19 -15 38 2 20 18
21 18 38 1 16 -16 16 -18 -5 -35 -22 -18 -22 -19 -3 -36 15 -14 17 -21 7 -36
-11 -18 -12 -18 -34 3 l-23 21 -23 -21 c-23 -22 -24 -22 -41 -3 -16 18 -16 20
6 35 l22 16 -21 22 c-21 20 -21 22 -5 34 22 17 22 17 44 -3z"/>
<path d="M1442 528 c-16 -16 -17 -384 -2 -393 6 -4 8 -16 5 -28 -5 -17 -4 -18
4 -8 8 12 11 10 16 -12 4 -15 5 -41 1 -57 -7 -38 10 -39 19 -1 7 33 -2 77 -21
106 -11 15 -14 65 -14 202 l0 183 60 0 60 0 0 -187 c-1 -144 -4 -194 -15 -213
-16 -28 -20 -120 -6 -120 5 0 9 20 9 45 0 25 7 57 16 70 13 20 16 57 16 209 0
101 -3 191 -6 200 -8 20 -123 23 -142 4z"/>
</g>
</svg>
