<?xml version="1.0" standalone="no"?>
<!DOCTYPE svg PUBLIC "-//W3C//DTD SVG 20010904//EN"
 "http://www.w3.org/TR/2001/REC-SVG-20010904/DTD/svg10.dtd">
<svg version="1.0" xmlns="http://www.w3.org/2000/svg"
 width="300.000000pt" height="355.000000pt" viewBox="0 0 300.000000 355.000000"
 preserveAspectRatio="xMidYMid meet">
<metadata>
Created by potrace 1.10, written by Peter Selinger 2001-2011
</metadata>
<g transform="translate(0.000000,355.000000) scale(0.100000,-0.100000)"
fill="#000000" stroke="none">
<path d="M1395 2966 c-174 -43 -307 -188 -337 -367 -30 -182 77 -381 247 -460
l65 -31 0 -85 0 -84 -73 2 c-72 2 -76 1 -128 -37 -268 -196 -613 -429 -631
-426 -40 7 -108 -20 -138 -55 -17 -18 -30 -38 -30 -44 0 -6 -3 -8 -8 -5 -4 2
-34 -1 -67 -8 -43 -8 -61 -17 -63 -29 -6 -30 17 -49 52 -41 50 10 55 24 8 24
-23 0 -42 4 -42 9 0 9 83 31 115 31 8 0 19 10 26 21 9 18 13 19 21 8 7 -10 8
-8 3 7 -5 18 2 26 40 44 31 15 54 20 75 15 25 -5 37 0 72 28 24 19 81 60 128
91 110 74 289 198 376 261 110 81 132 91 204 94 36 2 68 8 72 15 11 17 9 145
-2 166 -6 10 -37 31 -70 46 -61 27 -161 121 -175 163 -3 12 -10 21 -14 21 -5
0 -17 26 -27 58 -24 74 -24 208 -1 273 23 63 79 150 94 144 8 -2 10 2 6 13 -3
9 -3 14 1 11 3 -3 22 9 42 27 19 19 42 34 50 34 8 0 14 4 14 9 0 4 26 17 58
27 99 33 339 19 316 -18 -4 -7 -2 -8 4 -4 16 9 123 -55 115 -68 -4 -6 -3 -8 2
-4 13 13 65 -53 103 -132 34 -70 37 -81 37 -170 0 -75 -5 -108 -23 -155 -38
-101 -119 -187 -219 -235 l-63 -30 0 -88 c0 -55 4 -92 12 -100 7 -7 44 -12 95
-12 46 0 89 -5 96 -10 11 -10 127 -93 171 -122 10 -7 28 -20 40 -29 11 -9 57
-40 101 -70 44 -30 87 -59 95 -66 8 -7 65 -47 125 -89 77 -54 124 -80 155 -86
69 -13 105 -34 126 -73 18 -35 56 -54 109 -56 20 0 20 0 0 -8 -20 -8 -20 -8 0
-13 14 -4 10 -6 -12 -7 -44 -1 -52 -20 -20 -43 15 -11 27 -26 27 -34 0 -21
-34 -17 -55 6 -36 40 -69 16 -36 -26 12 -15 21 -32 21 -38 0 -6 -8 -2 -17 9
-15 20 -15 19 -10 -5 6 -24 5 -23 -21 7 -20 23 -32 29 -42 23 -12 -7 -12 -15
-2 -43 15 -41 15 -67 2 -67 -5 0 -10 4 -10 9 0 5 -6 16 -13 23 -7 7 -17 25
-24 39 -7 17 -22 29 -40 32 -15 3 -40 9 -54 12 -21 5 -32 1 -54 -21 -33 -33
-44 -20 -21 25 9 16 16 39 16 51 0 24 -41 65 -100 100 -24 14 -48 30 -54 35
-6 6 -33 26 -61 45 -27 18 -52 37 -55 41 -3 3 -34 25 -70 47 -88 56 -95 43
-41 -91 23 -56 41 -111 41 -121 0 -18 -64 -175 -130 -321 -15 -33 -31 -71 -35
-85 -4 -14 -18 -47 -31 -75 -67 -147 -64 -134 -64 -332 0 -180 1 -185 25 -221
30 -43 33 -82 8 -83 -15 0 -15 -2 2 -9 12 -5 -33 -9 -121 -9 -114 -1 -143 2
-147 13 -7 18 10 83 23 91 15 9 13 402 -1 411 -19 11 -122 5 -136 -9 -10 -9
-13 -60 -13 -193 -1 -166 1 -184 20 -216 11 -20 19 -49 18 -67 l-2 -31 -137 0
c-129 0 -137 1 -142 20 -7 28 7 74 32 106 19 25 21 40 21 202 l0 175 -41 91
c-59 129 -89 195 -153 329 -31 65 -56 123 -56 129 0 5 -10 27 -21 48 l-21 38
25 54 c14 30 35 79 47 109 34 85 -1 38 -50 -68 l-43 -93 21 -47 c12 -27 78
-169 146 -318 l126 -270 0 -182 c0 -101 -4 -183 -8 -183 -18 0 -42 -61 -42
-109 l0 -51 154 0 154 0 7 29 c7 33 -2 77 -21 106 -11 15 -14 65 -14 202 l0
183 60 0 60 0 0 -187 c-1 -144 -4 -194 -15 -213 -8 -14 -14 -46 -15 -72 l0
-48 155 0 155 0 6 26 c9 33 -10 96 -36 119 -19 17 -20 31 -20 189 l0 170 139
327 140 327 -34 80 c-18 44 -41 95 -50 112 -9 18 -14 34 -12 37 3 3 29 -13 59
-35 29 -21 114 -82 189 -135 75 -53 139 -103 142 -111 3 -8 -4 -32 -15 -54
-24 -43 -19 -72 11 -72 16 0 40 24 56 57 1 1 23 -6 50 -16 41 -15 52 -26 70
-62 22 -49 57 -63 73 -32 7 13 5 29 -9 57 -21 44 -17 62 6 28 39 -55 67 -66
85 -33 14 27 14 26 -21 66 -35 39 -26 49 10 11 29 -31 57 -38 76 -19 18 18 7
42 -32 72 l-28 21 32 -6 c31 -6 63 7 63 27 0 18 -32 37 -73 43 -36 6 -48 13
-68 43 -29 45 -74 72 -127 77 -32 4 -99 46 -377 242 l-338 237 -84 -2 -83 -2
0 88 0 89 38 13 c53 20 113 63 161 117 115 131 141 325 65 483 -34 69 -132
169 -197 200 -103 50 -217 63 -322 37z"/>
<path d="M1330 2773 c-54 -37 -62 -63 -25 -83 24 -13 24 -14 5 -27 -28 -20
-27 -77 2 -97 49 -34 108 -7 108 49 0 18 -6 36 -12 38 -10 4 -10 6 -1 6 6 1
15 -3 18 -9 10 -16 39 -12 61 8 19 18 20 18 38 0 11 -10 25 -18 33 -18 7 0 13
-4 13 -10 0 -5 -7 -10 -15 -10 -12 0 -11 -4 5 -20 11 -11 20 -24 20 -29 0 -5
14 -14 31 -21 27 -11 33 -11 57 7 17 13 28 31 30 51 3 26 -2 35 -29 51 -18 11
-37 17 -42 14 -6 -3 -7 -1 -3 5 4 7 15 8 29 3 16 -6 30 -3 49 11 23 16 26 22
17 42 -6 12 -26 31 -45 41 -34 18 -36 18 -66 0 -30 -17 -64 -44 -94 -72 -10
-11 -16 -8 -32 12 -11 14 -23 25 -27 25 -3 0 -21 11 -39 25 -39 30 -53 31 -86
8z m102 -43 c58 -45 58 -45 36 -62 -21 -15 -24 -15 -63 18 -36 29 -43 31 -56
19 -12 -12 -17 -12 -34 1 -18 14 -18 15 15 44 19 16 37 28 40 27 3 -1 31 -22
62 -47z m246 19 c19 -17 32 -31 30 -33 -1 -1 -11 -7 -20 -14 -13 -11 -20 -11
-36 -1 -17 11 -25 8 -58 -19 -35 -29 -39 -30 -56 -15 -10 9 -15 19 -12 22 14
14 109 90 114 90 3 0 20 -13 38 -30z m-304 -95 c9 -4 21 -15 27 -26 23 -42
-50 -78 -85 -42 -20 20 -20 33 1 56 17 19 31 22 57 12z m300 -20 c9 -8 16 -20
16 -26 0 -19 -32 -48 -53 -48 -23 0 -57 27 -57 46 0 20 29 44 55 44 13 0 31
-7 39 -16z"/>
<path d="M1337 2624 c-9 -10 4 -34 19 -34 8 0 14 9 14 20 0 19 -19 27 -33 14z"/>
<path d="M1616 2615 c-3 -9 1 -18 10 -22 19 -7 28 2 21 22 -8 19 -23 19 -31 0z"/>
<path d="M1414 2471 c-48 -22 -78 -52 -105 -103 -39 -76 -16 -106 49 -64 92
58 191 56 286 -4 52 -34 63 -23 14 13 -50 36 -94 50 -158 50 -64 0 -108 -14
-158 -51 -18 -13 -35 -22 -37 -21 -6 7 24 83 43 108 50 68 163 92 242 51 44
-23 85 -76 102 -135 11 -35 13 -37 16 -15 1 14 -4 41 -12 60 -46 108 -176 159
-282 111z"/>
<path d="M1480 1683 c-58 -19 -75 -44 -48 -71 9 -9 9 -15 0 -24 -17 -17 -15
-45 4 -52 8 -3 13 -10 10 -15 -7 -11 34 -2 52 12 9 7 16 7 24 -1 18 -18 43
-14 62 7 14 16 15 24 6 40 -6 12 -7 27 -3 34 16 25 12 44 -13 57 -20 11 -29
12 -45 2 -11 -7 -25 -10 -30 -6 -8 4 -7 9 2 15 15 9 4 11 -21 2z m12 -33 c12
-19 13 -19 35 2 22 21 24 21 41 4 16 -16 16 -18 -5 -35 l-22 -18 21 -21 c20
-19 20 -22 4 -37 -15 -16 -18 -15 -35 7 l-19 23 -24 -22 c-22 -21 -25 -21 -40
-6 -15 15 -15 17 5 34 l22 19 -22 19 c-20 17 -20 19 -5 35 21 21 29 20 44 -4z"/>
<path d="M972 1504 c-24 -13 -53 -34 -65 -45 -12 -11 -44 -34 -72 -52 -27 -17
-53 -36 -56 -41 -4 -5 -14 -6 -22 -3 -11 4 -14 1 -11 -8 3 -8 -3 -16 -16 -20
-25 -8 -110 -90 -110 -107 0 -6 9 -25 20 -43 20 -32 20 -33 1 -38 -15 -3 -23
3 -32 25 -12 29 -14 30 -58 23 -25 -3 -50 -13 -56 -21 -17 -26 -37 -50 -29
-35 4 9 3 12 -4 7 -6 -4 -9 -13 -6 -20 3 -8 1 -17 -5 -21 -18 -10 -25 24 -11
50 7 13 10 31 6 41 -6 15 -13 11 -50 -25 -36 -35 -44 -40 -50 -26 -4 11 5 31
25 56 29 37 31 59 5 59 -7 0 -21 -9 -30 -19 -20 -22 -54 -33 -62 -20 -3 5 2 9
10 9 10 0 13 6 10 15 -4 8 1 17 10 21 9 4 21 15 27 27 9 17 4 15 -30 -9 -46
-32 -59 -58 -41 -79 18 -22 35 -18 73 15 49 43 54 37 13 -14 -37 -45 -46 -83
-22 -92 22 -8 52 12 76 51 29 47 37 38 11 -13 -18 -35 -18 -41 -5 -61 21 -29
50 -13 74 41 13 29 25 42 42 44 12 1 28 4 35 6 6 1 22 -13 35 -32 47 -69 101
-36 59 36 -20 33 -20 36 -4 60 9 14 87 75 174 136 180 125 244 182 141 122z"/>
<path d="M1436 1410 c-19 -19 -19 -20 -1 -40 17 -19 17 -21 0 -40 -18 -20 -18
-21 4 -42 19 -17 28 -19 50 -12 17 7 36 6 54 0 23 -9 31 -7 49 11 21 22 21 23
4 42 -17 19 -17 21 -2 36 20 21 20 29 0 46 -20 16 -86 20 -77 5 3 -6 0 -5 -8
2 -19 17 -51 14 -73 -8z m99 -11 c18 18 22 18 40 5 20 -15 20 -15 -4 -35 l-23
-19 23 -19 c24 -20 24 -20 4 -35 -18 -13 -22 -13 -40 5 -21 18 -21 18 -40 -1
-18 -17 -22 -17 -40 -4 -20 15 -20 15 4 35 l23 19 -23 19 c-24 20 -24 20 -4
35 18 13 22 13 40 -4 19 -19 19 -19 40 -1z"/>
<path d="M1443 1163 c-27 -18 -30 -48 -7 -61 14 -8 14 -10 0 -21 -21 -17 -20
-34 2 -54 17 -15 75 -19 65 -4 -2 4 0 7 6 7 5 0 13 -4 16 -10 10 -16 41 -11
60 10 17 18 17 21 1 45 -9 14 -12 25 -7 25 22 0 21 35 -2 58 -22 21 -27 22
-46 11 -17 -11 -25 -11 -41 -1 -23 14 -20 15 -47 -5z m49 -20 c17 -15 19 -15
38 2 20 18 21 18 38 1 16 -16 16 -18 -5 -35 l-22 -18 21 -21 c20 -19 20 -22 4
-37 -15 -16 -18 -15 -35 7 l-19 23 -24 -23 c-24 -22 -25 -22 -42 -4 -16 18
-15 20 6 35 l23 16 -24 21 c-23 20 -23 21 -5 35 24 18 24 18 46 -2z"/>
</g>
</svg>
