<?xml version="1.0" standalone="no"?>
<!DOCTYPE svg PUBLIC "-//W3C//DTD SVG 20010904//EN"
 "http://www.w3.org/TR/2001/REC-SVG-20010904/DTD/svg10.dtd">
<svg version="1.0" xmlns="http://www.w3.org/2000/svg"
 width="300.000000pt" height="414.000000pt" viewBox="0 0 300.000000 414.000000"
 preserveAspectRatio="xMidYMid meet">
<metadata>
Created by potrace 1.10, written by Peter Selinger 2001-2011
</metadata>
<g transform="translate(0.000000,414.000000) scale(0.100000,-0.100000)"
fill="#000000" stroke="none">
<path d="M1010 3610 l0 -150 -83 0 c-70 0 -85 3 -100 20 -19 22 -60 27 -74 8
-22 -29 -22 -48 2 -75 24 -28 24 -28 55 -10 23 12 54 17 116 17 l84 0 0 -267
0 -268 140 3 140 3 0 -103 0 -103 -242 3 -243 2 -99 -162 c-383 -629 -345
-581 -429 -557 -22 6 -41 9 -43 7 -2 -2 17 -24 41 -48 24 -25 44 -48 45 -51 0
-3 -31 -28 -70 -55 -68 -48 -88 -71 -51 -59 23 7 151 23 151 18 0 -2 -9 -36
-20 -75 -11 -40 -20 -76 -20 -81 0 -4 27 21 59 55 33 35 61 61 64 58 2 -3 26
-32 52 -65 48 -59 48 -59 42 -25 -4 19 -9 54 -13 78 -8 50 -33 59 -27 10 4
-28 2 -31 -9 -17 -7 9 -23 21 -35 27 -18 10 -26 8 -52 -14 -31 -26 -38 -20
-22 21 12 29 -30 59 -72 51 l-32 -6 28 23 c15 13 31 37 36 54 8 27 6 32 -11
36 -28 8 -14 25 15 20 30 -6 60 29 124 143 26 46 50 84 55 84 4 0 8 4 8 9 0
10 139 244 150 251 4 3 9 10 11 15 2 6 33 58 68 118 l63 107 238 0 c287 0 270
-8 270 132 0 88 -2 95 -22 106 -25 13 -216 20 -234 9 -6 -3 -14 -4 -18 0 -3 3
-6 120 -6 260 0 218 -2 253 -15 253 -20 0 -19 36 1 44 12 5 15 26 13 131 -1
70 1 128 4 131 2 3 208 6 456 7 l451 2 0 -127 c0 -110 2 -128 18 -137 16 -10
16 -12 0 -25 -16 -12 -18 -37 -18 -274 l0 -260 -121 -1 c-158 0 -159 -1 -159
-126 0 -132 -13 -125 258 -125 l222 0 30 -52 c62 -107 201 -333 208 -338 4 -3
13 -18 20 -35 8 -16 36 -65 63 -107 27 -42 49 -82 49 -87 0 -6 4 -11 10 -11 5
0 17 -15 26 -32 18 -36 44 -59 56 -52 16 10 7 -14 -12 -31 -17 -16 -18 -20 -5
-44 7 -15 25 -32 39 -39 39 -18 32 -32 -10 -20 -36 10 -69 -2 -45 -16 12 -8
164 -26 170 -21 2 2 -10 12 -25 22 -16 10 -50 34 -77 53 l-47 34 45 46 c51 52
56 64 19 50 -43 -17 -68 -12 -85 18 -9 15 -60 99 -114 187 -54 88 -145 238
-203 333 l-105 172 -231 0 -231 0 0 101 0 100 143 -3 142 -3 0 278 0 277 75 0
c58 0 76 -4 83 -16 21 -38 92 -9 92 37 0 42 -64 66 -90 34 -9 -11 -33 -15 -86
-15 l-74 0 0 140 0 140 -485 0 -485 0 0 -150z m1188 -144 c6 -28 -11 -38 -44
-26 l-29 11 25 19 c29 22 44 21 48 -4z m-1383 -2 c20 -15 20 -15 1 -30 -36
-26 -63 -12 -51 26 8 24 23 25 50 4z"/>
<path d="M1264 3547 c-30 -15 -64 -68 -64 -100 0 -17 13 -41 33 -63 57 -62
140 -49 182 29 19 35 19 36 -1 73 -33 63 -96 88 -150 61z m111 -42 c51 -50 13
-135 -60 -135 -42 0 -95 44 -95 80 0 12 13 35 29 51 38 38 91 40 126 4z"/>
<path d="M1596 3527 c-50 -46 -50 -91 0 -141 47 -47 97 -50 142 -8 38 35 48
73 32 113 -32 75 -112 92 -174 36z m142 -23 c37 -42 25 -91 -29 -120 -38 -19
-73 -12 -105 23 -28 30 -31 59 -8 91 34 48 102 51 142 6z"/>
<path d="M1262 3238 c7 -21 96 -77 141 -89 84 -23 236 11 254 56 11 29 25 15
18 -17 -21 -98 -100 -165 -195 -167 -82 -2 -187 78 -212 162 -13 44 -42 53
-32 10 4 -16 11 -29 16 -31 4 -2 8 -10 8 -17 0 -28 88 -111 132 -125 68 -21
79 -22 143 -9 48 10 67 20 100 55 25 25 48 62 57 91 15 46 15 49 -5 68 -14 13
-22 15 -25 7 -2 -7 -9 -12 -15 -12 -6 0 -20 -9 -31 -19 -32 -30 -130 -42 -207
-27 -34 7 -68 21 -74 30 -7 9 -17 16 -22 16 -6 0 -16 7 -23 15 -15 18 -33 20
-28 3z"/>
<path d="M1112 3150 c0 -14 2 -19 5 -12 2 6 2 18 0 25 -3 6 -5 1 -5 -13z"/>
<path d="M1758 2623 c7 -3 16 -2 19 1 4 3 -2 6 -13 5 -11 0 -14 -3 -6 -6z"/>
<path d="M1484 2507 c-5 -7 -13 -20 -17 -29 -4 -12 -17 -18 -37 -18 -40 0 -39
-17 2 -25 34 -8 58 11 58 46 0 35 17 27 29 -12 12 -39 14 -41 43 -35 17 3 35
6 40 6 5 0 6 5 3 10 -3 6 -17 10 -31 10 -17 0 -27 8 -33 24 -5 13 -17 26 -26
30 -20 7 -18 8 -31 -7z"/>
<path d="M1390 2414 c8 -10 20 -22 27 -27 7 -4 10 -21 6 -45 -7 -44 8 -35 25
16 11 31 10 33 -31 53 -38 20 -41 20 -27 3z"/>
<path d="M1583 2409 c-37 -23 -38 -27 -22 -63 18 -40 39 -42 28 -3 -7 24 -6
35 4 42 11 8 31 45 24 45 -1 0 -17 -10 -34 -21z"/>
<path d="M1466 2329 c-38 -30 -32 -45 8 -21 28 17 37 18 46 7 13 -15 50 -27
50 -15 0 10 -54 50 -68 50 -5 0 -21 -9 -36 -21z"/>
<path d="M1482 2227 c-7 -15 -11 -17 -12 -7 -1 8 -5 4 -9 -10 -5 -19 -14 -26
-39 -28 -37 -4 -42 -17 -9 -26 46 -12 56 -7 68 34 14 46 24 44 33 -5 6 -28 11
-35 31 -35 30 0 55 10 55 21 0 5 -13 9 -30 9 -16 0 -30 4 -30 9 0 4 -11 20
-24 34 l-24 25 -10 -21z"/>
<path d="M768 2129 c-36 -48 -128 -195 -128 -203 0 -4 -14 -27 -31 -51 -23
-32 -30 -50 -25 -68 6 -24 5 -25 -29 -14 -35 10 -56 4 -39 -12 10 -10 125 -33
132 -27 2 3 -8 15 -22 27 -14 12 -26 26 -26 30 0 3 41 74 91 155 50 82 95 158
99 169 5 11 9 -144 9 -352 l1 -373 100 0 100 0 0 -391 c0 -378 -1 -391 -19
-396 -11 -3 -22 -11 -25 -18 -8 -22 -9 -171 -1 -185 4 -6 26 -21 49 -31 63
-29 256 -27 311 2 22 12 43 27 47 33 4 6 8 46 8 89 0 64 -3 80 -20 97 -19 19
-20 33 -20 410 l0 390 140 0 140 0 0 -389 0 -389 -25 -16 c-23 -15 -25 -22
-25 -97 0 -44 5 -89 10 -99 18 -34 110 -53 230 -48 83 3 115 9 141 24 l34 20
3 92 c2 83 1 93 -18 104 -20 13 -20 21 -20 405 l0 393 110 0 110 0 -1 348 c0
191 -3 354 -7 362 -23 51 -27 -1 -24 -336 l2 -354 -93 0 c-59 0 -97 -4 -105
-12 -9 -9 -12 -112 -12 -402 0 -344 2 -391 16 -407 11 -13 17 -41 19 -97 2
-67 0 -80 -16 -90 -30 -19 -150 -34 -216 -27 -35 4 -65 6 -68 6 -3 -1 -19 6
-35 14 -30 15 -30 17 -30 98 0 76 2 84 25 101 l25 19 0 382 c0 357 -1 383 -18
398 -28 26 -282 25 -305 -1 -14 -15 -16 -62 -16 -397 1 -358 2 -381 20 -403
15 -20 19 -41 19 -103 0 -71 -2 -79 -22 -91 -30 -16 -39 -18 -133 -22 -87 -4
-170 8 -197 28 -17 13 -28 102 -15 123 4 6 3 13 -3 15 -6 2 4 19 21 39 l31 37
3 381 c2 340 0 382 -14 395 -11 10 -44 16 -101 18 l-85 3 -2 290 c-2 160 -3
315 -3 346 0 30 -6 63 -13 74 -13 17 -15 16 -39 -16z"/>
<path d="M2156 2152 c5 -4 21 -27 35 -52 14 -25 55 -93 91 -151 l66 -107 -39
-38 c-46 -45 -49 -56 -11 -44 15 4 49 11 76 14 l49 6 -7 -38 c-3 -20 -9 -55
-12 -77 l-5 -40 23 30 c13 16 35 43 51 60 l27 30 54 -57 c53 -58 75 -73 57
-40 -5 9 -14 43 -22 75 -15 69 -35 90 -26 28 l5 -41 -30 25 c-36 30 -54 32
-70 5 -18 -28 -28 -25 -28 8 0 38 -17 52 -64 52 -37 0 -38 1 -22 19 19 21 15
38 -26 98 -15 23 -28 45 -28 49 0 4 -12 23 -27 43 -16 20 -37 54 -48 77 -23
47 -48 74 -67 74 -8 0 -9 -3 -2 -8z"/>
<path d="M1380 2142 c0 -5 11 -19 25 -32 24 -22 24 -25 8 -42 -12 -14 -14 -21
-5 -30 9 -9 15 -2 28 27 15 37 15 40 -3 53 -31 23 -53 33 -53 24z"/>
<path d="M1570 2123 c-14 -9 -26 -17 -27 -18 -8 -5 24 -65 34 -65 16 0 16 5 2
32 -9 16 -7 23 10 35 21 14 28 33 13 33 -4 0 -19 -8 -32 -17z"/>
<path d="M1455 2045 c-31 -25 -23 -33 18 -14 19 9 31 7 61 -10 35 -20 36 -20
26 -2 -11 22 -49 51 -65 51 -5 0 -23 -11 -40 -25z"/>
<path d="M1483 1974 c-13 -14 -23 -32 -23 -40 0 -9 -12 -14 -35 -14 -47 0 -55
-23 -22 -58 19 -20 24 -34 20 -54 -3 -16 -3 -28 1 -28 6 0 38 72 34 75 -2 1
-19 11 -38 23 l-35 22 46 0 c45 0 46 1 59 43 l13 42 14 -42 c14 -42 15 -43 61
-43 l47 0 -35 -21 c-19 -12 -37 -23 -38 -24 -8 -8 20 -74 33 -79 18 -6 18 -7
4 33 -11 30 -9 35 19 61 l31 28 -29 12 c-16 7 -31 21 -33 33 -4 22 -4 22 -6 0
-1 -28 -17 -30 -26 -3 -3 11 -11 20 -17 20 -5 0 -7 7 -4 16 3 8 2 13 -3 9 -5
-3 -11 -1 -13 4 -1 6 -13 -1 -25 -15z"/>
<path d="M1472 1797 c-38 -26 -45 -55 -9 -35 12 7 25 17 28 22 4 5 21 -1 39
-14 18 -13 35 -19 40 -14 5 5 -8 21 -29 36 l-38 27 -31 -22z"/>
<path d="M2028 1363 c6 -2 18 -2 25 0 6 3 1 5 -13 5 -14 0 -19 -2 -12 -5z"/>
<path d="M2088 1363 c12 -2 30 -2 40 0 9 3 -1 5 -23 4 -22 0 -30 -2 -17 -4z"/>
</g>
</svg>
