<?xml version="1.0" standalone="no"?>
<!DOCTYPE svg PUBLIC "-//W3C//DTD SVG 20010904//EN"
 "http://www.w3.org/TR/2001/REC-SVG-20010904/DTD/svg10.dtd">
<svg version="1.0" xmlns="http://www.w3.org/2000/svg"
 width="300.000000pt" height="355.000000pt" viewBox="0 0 300.000000 355.000000"
 preserveAspectRatio="xMidYMid meet">
<metadata>
Created by potrace 1.10, written by Peter Selinger 2001-2011
</metadata>
<g transform="translate(0.000000,355.000000) scale(0.100000,-0.100000)"
fill="#000000" stroke="none">
<path d="M1510 3127 c-19 -23 -124 -145 -233 -270 l-198 -228 88 -102 c48 -56
120 -139 160 -185 l73 -82 -1 -73 0 -72 -211 -150 c-115 -82 -240 -166 -276
-185 -127 -67 -231 -189 -266 -310 -20 -70 -20 -322 -1 -360 18 -34 64 -77 98
-89 48 -18 120 -13 168 12 107 57 121 207 25 283 -44 35 -46 66 -12 140 22 47
91 117 109 111 4 -1 39 -97 77 -212 l70 -210 0 -317 c0 -215 -3 -318 -10 -318
-6 0 -22 -11 -35 -25 -21 -20 -25 -33 -25 -88 0 -55 3 -67 26 -88 24 -23 33
-24 166 -27 94 -2 150 0 170 9 79 33 77 188 -4 218 -18 6 -19 23 -21 314 l-2
307 93 0 92 0 0 -305 0 -304 -30 -16 c-56 -29 -65 -141 -15 -191 23 -23 29
-24 179 -24 147 0 156 1 182 23 20 18 28 35 31 73 6 62 -14 106 -57 124 l-30
12 0 296 0 295 71 221 c39 122 75 225 80 230 14 15 90 -44 120 -94 15 -25 29
-64 32 -86 4 -35 1 -44 -17 -53 -35 -19 -69 -78 -74 -130 -17 -180 230 -258
342 -108 18 25 21 44 23 150 1 67 -2 147 -7 177 -25 139 -139 283 -279 353
-41 21 -172 108 -293 194 l-218 157 0 56 c0 53 3 59 48 111 26 29 103 118 170
196 l123 142 -198 228 c-109 126 -214 247 -233 270 l-35 41 -35 -41z m166
-154 c3 -13 10 -21 14 -18 5 3 11 1 15 -5 3 -5 -3 -10 -15 -10 -12 0 -38 -11
-58 -25 -20 -14 -42 -25 -49 -25 -7 0 -13 -4 -13 -9 0 -16 -40 -20 -54 -5 -8
8 -18 14 -22 14 -3 0 -23 10 -43 22 -20 13 -39 23 -43 24 -5 1 -14 2 -20 3 -8
1 -4 9 10 20 12 11 22 24 22 31 0 6 5 8 10 5 6 -3 10 0 10 9 0 8 14 26 30 40
17 14 31 29 32 33 1 15 28 47 28 35 0 -7 5 -10 10 -7 6 4 8 12 4 18 -3 7 23
-19 60 -58 36 -38 68 -80 72 -92z m-213 -92 l68 -38 -24 -16 c-22 -14 -27 -13
-72 13 -43 25 -51 27 -69 15 -18 -12 -24 -11 -41 1 -17 13 -18 16 -5 24 8 5
24 16 35 24 27 21 31 20 108 -23z m268 17 c22 -12 39 -25 39 -30 0 -14 -50
-21 -64 -9 -11 10 -24 6 -62 -17 -39 -25 -51 -28 -71 -19 -12 5 -23 13 -23 16
0 5 129 80 139 81 2 0 21 -10 42 -22z m59 -63 c0 6 29 -21 65 -59 35 -38 62
-73 59 -78 -3 -5 -1 -7 4 -6 5 2 21 -12 37 -30 27 -32 27 -33 9 -55 -10 -12
-23 -26 -29 -32 -6 -5 -25 -29 -44 -53 -19 -24 -38 -39 -44 -35 -7 3 -9 3 -5
-2 9 -9 -41 -77 -52 -70 -4 3 -11 -7 -14 -21 -4 -15 -10 -24 -13 -20 -3 3 -21
-17 -40 -44 -18 -28 -39 -50 -47 -50 -15 0 -15 -2 -22 -88 -5 -48 -2 -69 10
-87 9 -14 21 -25 26 -25 16 0 105 -72 102 -82 -1 -5 2 -7 7 -4 4 3 24 -5 42
-18 19 -14 62 -44 96 -67 34 -24 59 -48 56 -54 -4 -5 -3 -7 2 -3 4 4 35 -12
69 -36 33 -24 72 -47 86 -51 41 -13 130 -77 123 -89 -3 -6 -2 -8 2 -3 9 8 95
-70 95 -86 0 -5 8 -21 19 -35 36 -52 51 -123 55 -266 4 -110 2 -145 -10 -168
-8 -16 -19 -26 -24 -23 -6 4 -10 -1 -10 -10 0 -26 -85 -58 -132 -51 -52 9
-101 34 -92 48 4 7 3 8 -4 4 -7 -4 -20 6 -32 26 -23 37 -27 73 -7 62 10 -6 10
-4 0 7 -17 17 -16 34 3 76 11 22 22 32 31 29 8 -3 12 -2 9 3 -3 4 3 16 14 26
44 40 13 165 -53 221 -45 38 -95 60 -107 48 -6 -6 -31 -73 -56 -150 -25 -76
-50 -148 -54 -159 -42 -100 -46 -137 -49 -437 -2 -203 1 -303 9 -317 6 -11 23
-27 39 -36 28 -14 49 -65 28 -65 -7 0 -7 -4 1 -12 18 -18 15 -40 -12 -71 l-23
-27 -145 0 c-111 0 -149 3 -164 15 -10 8 -15 15 -11 15 5 0 1 7 -7 16 -9 8
-16 25 -16 37 0 35 11 67 21 61 5 -3 6 1 4 8 -3 8 8 21 25 31 l30 18 0 315 0
314 -23 9 c-34 13 -174 6 -193 -10 -12 -10 -15 -31 -14 -103 1 -50 1 -95 0
-101 -4 -26 2 -408 6 -420 3 -8 18 -20 34 -27 15 -6 26 -17 23 -24 -2 -6 3
-14 11 -17 27 -11 21 -93 -9 -122 -23 -24 -29 -25 -165 -25 -138 0 -141 1
-167 26 -23 23 -25 31 -20 82 4 38 11 60 22 67 49 29 46 11 46 349 l0 319 -72
219 c-42 128 -78 222 -86 225 -23 9 -95 -48 -127 -100 -18 -30 -31 -66 -34
-98 -4 -48 -3 -53 27 -79 51 -43 71 -80 71 -132 0 -26 -6 -53 -12 -60 -7 -8
-18 -23 -24 -33 -8 -13 -21 -19 -35 -17 -16 1 -20 -1 -11 -6 23 -15 -43 -35
-101 -30 -64 5 -108 35 -132 88 -14 31 -15 50 -8 108 5 39 6 69 1 66 -11 -7
-10 73 2 137 12 64 56 155 84 175 11 8 16 14 11 14 -5 0 7 16 26 36 38 40 142
114 159 114 6 0 26 11 44 25 18 14 36 23 39 20 4 -3 5 -2 2 1 -5 8 70 64 85
64 5 0 10 5 10 10 0 6 7 10 15 10 8 0 15 4 15 8 0 4 15 16 33 27 17 10 41 27
52 38 11 10 55 43 97 73 87 61 92 72 86 167 -3 45 -9 69 -23 83 -11 11 -38 42
-60 69 -22 27 -51 61 -65 76 -14 14 -40 44 -58 65 -18 22 -46 55 -62 74 -16
19 -30 43 -30 52 0 9 25 42 55 73 30 30 55 58 55 63 0 4 15 21 33 38 28 28 37
31 82 29 73 -5 72 -4 43 -21 -80 -43 -58 -140 35 -154 l46 -7 23 43 c19 36 20
46 10 69 -11 23 -10 27 1 22 9 -3 14 1 13 11 -1 20 30 28 48 12 9 -7 12 -24 9
-50 -5 -33 -1 -42 22 -64 37 -34 87 -35 120 -1 36 35 33 79 -7 117 l-33 31 32
-7 c18 -4 40 -3 50 3 12 6 20 6 25 -2 4 -7 8 -7 8 -2z m-88 -42 c40 -36 10
-103 -45 -103 -58 0 -88 60 -50 102 20 22 70 23 95 1z m-232 -13 c40 -40 12
-100 -45 -100 -40 0 -65 22 -65 57 0 57 69 84 110 43z"/>
<path d="M1451 2575 c-86 -32 -121 -66 -121 -120 0 -72 75 -123 195 -132 82
-6 157 13 204 53 15 13 30 21 33 19 3 -3 5 1 6 8 1 6 4 26 8 43 9 47 -38 96
-124 128 -82 32 -118 32 -201 1z m164 -10 c22 -4 59 -17 81 -30 84 -49 78
-122 -13 -166 -68 -33 -198 -34 -263 -2 -41 21 -80 65 -80 92 0 25 63 80 108
95 55 17 91 24 112 20 8 -1 33 -5 55 -9z"/>
<path d="M1518 1943 c-8 -10 -23 -32 -33 -50 -19 -32 -19 -32 11 -80 16 -26
36 -49 44 -50 15 -3 70 77 70 100 -1 16 -52 89 -66 94 -6 2 -17 -4 -26 -14z
m46 -37 l26 -44 -23 -41 c-12 -22 -24 -41 -27 -41 -3 0 -16 20 -29 44 l-24 43
21 31 c12 16 22 35 22 41 0 19 7 12 34 -33z"/>
<path d="M1497 1695 c-15 -25 -27 -51 -27 -58 1 -16 52 -89 67 -94 12 -4 73
77 73 97 0 18 -60 100 -73 100 -7 0 -24 -20 -40 -45z m67 -9 l26 -44 -23 -41
c-12 -22 -25 -41 -28 -41 -3 0 -15 18 -27 39 l-23 40 23 45 c13 25 24 46 25
46 0 0 13 -20 27 -44z"/>
<path d="M1505 1447 c-14 -24 -25 -50 -25 -57 0 -23 50 -100 65 -100 8 0 19 9
25 20 6 11 16 18 21 14 6 -3 9 0 8 7 -2 8 2 23 8 35 9 16 9 26 -1 45 -7 14
-10 31 -8 38 3 8 0 11 -5 8 -5 -3 -17 3 -26 14 -24 28 -33 24 -62 -24z m66
-102 l-26 -42 -26 41 -26 41 26 46 26 47 26 -46 26 -46 -26 -41z"/>
<path d="M1635 2760 c-4 -7 -3 -16 3 -22 14 -14 45 -2 40 15 -6 16 -34 21 -43
7z"/>
<path d="M1404 2745 c-8 -19 12 -36 33 -28 19 7 12 37 -10 41 -9 2 -20 -4 -23
-13z"/>
</g>
</svg>
