<?xml version="1.0" standalone="no"?>
<!DOCTYPE svg PUBLIC "-//W3C//DTD SVG 20010904//EN"
 "http://www.w3.org/TR/2001/REC-SVG-20010904/DTD/svg10.dtd">
<svg version="1.0" xmlns="http://www.w3.org/2000/svg"
 width="300.000000pt" height="325.000000pt" viewBox="0 0 300.000000 325.000000"
 preserveAspectRatio="xMidYMid meet">
<metadata>
Created by potrace 1.10, written by Peter Selinger 2001-2011
</metadata>
<g transform="translate(0.000000,325.000000) scale(0.100000,-0.100000)"
fill="#000000" stroke="none">
<path d="M1390 2836 c-85 -99 -190 -219 -233 -268 l-78 -89 160 -186 161 -186
-1 -71 0 -71 -141 -100 c-78 -55 -179 -128 -226 -162 -72 -54 -90 -63 -126
-63 -65 0 -130 27 -174 72 -38 38 -39 42 -30 76 38 139 -105 286 -236 242
-145 -47 -185 -244 -71 -350 15 -14 47 -56 72 -93 118 -178 331 -258 558 -212
l30 6 63 -198 63 -198 -1 -312 c0 -211 -3 -313 -10 -313 -6 0 -22 -11 -35 -25
-21 -20 -25 -34 -25 -84 0 -49 4 -65 24 -88 24 -28 25 -28 166 -31 96 -2 152
0 172 9 79 33 77 188 -4 218 -18 6 -19 23 -21 314 l-2 307 93 0 92 0 0 -305 0
-304 -30 -16 c-56 -29 -65 -141 -15 -191 23 -23 29 -24 179 -24 147 0 156 1
182 23 56 48 39 176 -27 199 l-29 10 0 296 0 297 68 211 c67 210 68 211 92
202 14 -5 61 -12 105 -15 188 -12 361 74 469 235 25 37 57 78 72 92 15 14 34
41 42 60 16 38 18 124 3 161 -25 66 -110 129 -173 129 -116 -1 -220 -139 -188
-249 12 -43 -11 -79 -76 -117 -62 -37 -165 -45 -197 -17 -12 11 -115 87 -229
168 l-208 149 0 55 0 56 171 198 172 199 -36 36 c-19 20 -124 141 -234 268
l-199 230 -154 -180z m159 129 c5 2 19 -8 32 -23 120 -134 159 -184 153 -194
-4 -7 -3 -8 4 -4 7 4 12 1 12 -8 0 -20 -9 -20 -31 0 -17 15 -20 15 -45 -1 -15
-9 -23 -12 -20 -6 5 7 1 9 -8 5 -9 -3 -16 -1 -16 5 0 6 -13 10 -29 9 -16 -1
-28 -5 -25 -9 2 -4 -3 -12 -11 -19 -19 -16 -19 -29 1 -51 14 -16 14 -20 -1
-42 -14 -21 -14 -29 -3 -46 16 -26 31 -32 68 -25 18 4 27 11 23 18 -3 6 3 3
14 -6 27 -25 50 -22 69 7 14 21 14 30 4 54 -8 20 -8 35 -1 47 5 11 12 27 15
38 5 15 9 16 21 6 9 -7 14 -15 12 -17 -3 -2 15 -23 39 -47 24 -23 41 -46 37
-49 -3 -4 -1 -7 5 -7 6 0 23 -17 37 -37 14 -21 25 -34 25 -30 0 5 11 -4 24
-20 22 -26 23 -30 10 -56 -8 -15 -21 -30 -29 -33 -7 -3 -25 -22 -38 -42 -14
-20 -46 -59 -71 -86 -25 -26 -46 -49 -46 -51 0 -2 -44 -53 -97 -114 -29 -32
-33 -42 -33 -97 0 -33 6 -67 13 -76 6 -8 49 -41 95 -72 45 -32 82 -62 82 -67
0 -6 4 -8 9 -5 5 4 11 3 13 -1 1 -5 26 -24 53 -42 28 -19 85 -61 129 -93 74
-55 82 -58 136 -58 94 0 167 37 211 107 19 30 20 50 6 123 -3 19 27 92 43 103
11 8 17 17 12 22 -4 4 1 5 10 2 11 -4 17 -2 15 5 -3 18 73 40 114 33 40 -7
102 -56 124 -99 26 -50 19 -123 -17 -183 -18 -29 -36 -53 -40 -53 -4 0 -23
-25 -43 -55 -19 -30 -40 -55 -47 -55 -6 0 -9 -3 -5 -6 6 -6 -27 -40 -79 -83
-48 -38 -142 -79 -213 -92 -80 -14 -194 -5 -216 18 -12 11 -15 11 -15 1 0 -11
-2 -11 -9 0 -10 17 -9 20 -73 -168 -84 -249 -79 -216 -85 -543 -3 -219 -1
-307 7 -328 7 -16 16 -27 20 -24 12 8 52 -27 46 -41 -3 -8 -2 -14 3 -14 5 0 9
-11 9 -25 0 -16 -5 -22 -12 -18 -6 4 -5 0 2 -9 16 -20 3 -52 -28 -68 -10 -5
-81 -10 -157 -10 -156 0 -176 7 -187 64 -8 41 2 89 16 80 5 -3 8 1 6 10 -2 9
8 22 22 29 l25 13 0 319 0 320 -105 0 -105 0 -7 -98 c-4 -54 -6 -198 -5 -320
l2 -222 32 -14 c51 -23 69 -91 38 -150 -19 -37 -36 -41 -188 -41 -124 0 -129
1 -153 25 -23 23 -25 31 -20 83 4 37 11 61 22 67 49 31 46 11 46 347 l-1 316
-36 119 c-21 65 -43 132 -50 148 -7 17 -16 46 -20 65 -4 19 -13 47 -21 61
l-13 27 -58 -14 c-32 -8 -80 -14 -108 -14 -100 0 -233 46 -295 100 -14 12 -35
29 -48 37 -12 9 -44 48 -70 87 -26 39 -56 80 -68 91 -40 37 -64 88 -64 136 0
81 34 136 107 173 37 19 55 20 104 6 82 -23 125 -97 122 -209 -3 -69 -1 -75
26 -100 75 -68 105 -81 193 -81 56 0 63 3 106 40 25 22 47 38 49 36 2 -2 14 5
26 15 36 30 187 142 254 187 35 23 67 52 73 63 10 18 12 184 2 174 -5 -5 -11
1 -82 85 -30 36 -63 74 -72 84 -10 11 -18 26 -18 33 0 8 -4 12 -8 9 -5 -3 -16
4 -25 15 -9 10 -15 19 -12 19 2 0 -14 18 -35 39 -22 22 -40 48 -40 58 0 10 14
34 31 53 17 19 42 49 56 65 14 17 22 23 17 15 -4 -8 2 -6 13 5 12 11 20 23 19
26 -1 7 61 69 69 69 3 0 5 -8 5 -17 0 -9 7 -25 17 -35 9 -10 11 -18 6 -18 -6
0 -14 -12 -17 -26 -12 -48 62 -101 78 -57 6 14 9 15 15 4 5 -7 10 -12 12 -11
2 1 12 -2 22 -6 12 -4 26 1 42 16 26 24 40 61 21 57 -6 -1 -10 4 -8 11 1 6 -3
12 -10 12 -6 0 -4 7 5 18 21 23 21 37 0 62 -19 21 -48 26 -58 10 -4 -6 -11 -8
-16 -5 -5 4 -9 1 -9 -6 0 -8 -6 -7 -18 4 -17 16 -65 20 -56 6 2 -4 0 -10 -5
-13 -5 -4 -12 -2 -16 4 -8 14 45 81 58 73 5 -3 7 -2 4 4 -8 13 22 55 34 47 5
-3 8 -2 7 3 -4 11 96 131 100 121 2 -4 7 -6 11 -3z m-95 -263 l23 26 21 -20
20 -21 -26 -22 -26 -22 28 -24 28 -24 -21 -19 c-21 -19 -22 -19 -46 4 l-25 23
-25 -23 c-24 -23 -25 -23 -46 -4 l-21 19 28 24 28 24 -26 22 -26 22 20 21 21
20 23 -26 24 -27 24 27z m180 6 l16 -22 25 24 25 24 20 -20 20 -20 -24 -23
-25 -23 26 -22 25 -21 -21 -19 c-21 -19 -22 -19 -44 2 l-23 22 -23 -24 c-23
-24 -23 -24 -43 -4 -20 20 -20 20 3 44 l22 24 -21 23 c-20 22 -21 24 -5 40 22
22 29 21 47 -5z"/>
<path d="M1430 2419 c-103 -47 -130 -115 -70 -182 74 -84 310 -86 379 -3 7 9
17 14 21 11 4 -3 10 14 14 36 9 57 -15 93 -84 127 -74 36 -193 42 -260 11z
m253 -28 c64 -31 87 -73 63 -118 -26 -52 -94 -78 -201 -78 -80 0 -95 3 -136
27 -76 45 -84 92 -27 145 61 58 209 69 301 24z"/>
<path d="M1431 2054 c0 -11 3 -14 6 -6 3 7 2 16 -1 19 -3 4 -6 -2 -5 -13z"/>
<path d="M1530 1815 c0 -3 13 -27 30 -53 l30 -49 -23 -41 c-12 -23 -24 -42
-27 -42 -3 0 -16 20 -29 44 l-24 43 21 31 c12 16 22 35 22 41 0 23 -16 9 -39
-34 l-23 -44 26 -44 c37 -64 51 -66 86 -10 32 50 36 68 20 78 -6 4 -8 16 -5
28 4 13 3 17 -2 10 -6 -8 -14 -3 -28 17 -18 27 -35 39 -35 25z"/>
<path d="M1514 1568 c-24 -29 -44 -64 -44 -79 0 -15 59 -99 70 -99 11 0 70 84
70 100 0 15 -59 100 -69 100 -4 0 -16 -10 -27 -22z m50 -33 l27 -45 -23 -40
c-13 -22 -26 -40 -29 -40 -3 0 -15 18 -27 39 l-23 40 23 45 c13 25 24 46 25
46 0 0 13 -20 27 -45z"/>
<path d="M1504 1295 c-28 -49 -28 -69 6 -122 23 -38 44 -42 61 -12 9 18 13 19
21 8 7 -10 8 -8 3 8 -3 12 -1 24 5 28 13 8 13 62 0 70 -6 4 -7 11 -4 17 4 6 3
8 -3 5 -6 -4 -15 5 -21 18 -17 37 -38 30 -68 -20z m67 -100 l-26 -42 -26 41
-26 41 26 46 26 47 26 -46 26 -46 -26 -41z"/>
<path d="M1592 270 c0 -14 2 -19 5 -12 2 6 2 18 0 25 -3 6 -5 1 -5 -13z"/>
</g>
</svg>
