<?xml version="1.0" standalone="no"?>
<!DOCTYPE svg PUBLIC "-//W3C//DTD SVG 20010904//EN"
 "http://www.w3.org/TR/2001/REC-SVG-20010904/DTD/svg10.dtd">
<svg version="1.0" xmlns="http://www.w3.org/2000/svg"
 width="300.000000pt" height="355.000000pt" viewBox="0 0 300.000000 355.000000"
 preserveAspectRatio="xMidYMid meet">
<metadata>
Created by potrace 1.10, written by Peter Selinger 2001-2011
</metadata>
<g transform="translate(0.000000,355.000000) scale(0.100000,-0.100000)"
fill="#000000" stroke="none">
<path d="M1089 3236 c-66 -45 -69 -64 -69 -434 0 -320 1 -329 23 -372 32 -65
68 -80 190 -80 l97 0 0 -90 0 -90 -175 0 c-196 0 -221 -6 -255 -63 -11 -18
-20 -48 -20 -67 0 -34 -5 -30 -243 208 -227 227 -246 249 -273 312 -16 38 -30
68 -31 67 -1 -2 -7 -53 -14 -114 -14 -129 -2 -119 -152 -129 -54 -4 -94 -10
-90 -14 4 -4 35 -17 68 -30 55 -21 85 -48 393 -354 182 -182 333 -326 334
-321 1 6 5 -151 8 -347 l5 -356 25 -27 c34 -37 79 -55 140 -55 l50 0 0 -308 0
-308 -28 -21 c-31 -23 -62 -79 -62 -112 0 -21 4 -21 194 -21 107 0 197 4 200
8 11 18 -15 79 -44 107 l-30 29 0 313 0 313 145 0 145 0 0 -312 0 -312 -30
-25 c-29 -25 -63 -97 -53 -113 2 -5 92 -8 200 -8 l196 0 -6 37 c-4 23 -19 50
-42 73 l-35 36 0 312 0 312 68 0 c93 1 143 24 171 82 20 42 21 58 21 374 l1
329 323 327 c308 312 328 329 398 361 l73 34 -112 7 c-67 5 -116 12 -120 19
-5 7 -15 61 -23 122 l-15 110 -28 -70 c-26 -66 -42 -85 -262 -309 l-233 -240
-11 40 c-11 40 -37 72 -78 93 -14 7 -87 11 -197 11 l-176 0 0 90 0 90 110 0
c119 0 146 8 190 55 l25 27 0 373 0 373 -25 27 c-52 55 -49 55 -452 55 l-373
0 -36 -24z m832 -33 c17 -18 28 -33 24 -33 -4 0 -3 -6 3 -12 6 -7 9 -32 8 -56
-1 -24 1 -45 5 -48 5 -3 5 -15 1 -27 -4 -12 -7 -74 -6 -137 1 -72 -3 -120 -10
-129 -8 -11 -8 -13 1 -8 9 6 12 -28 10 -146 -3 -169 -12 -197 -65 -219 -38
-15 -92 -20 -92 -7 0 6 -5 7 -12 2 -7 -4 -41 -8 -76 -9 -35 -1 -69 -7 -74 -12
-6 -6 -12 -52 -12 -102 -1 -103 5 -114 60 -112 22 1 32 -2 28 -9 -4 -8 -1 -8
12 -2 23 12 184 11 203 -1 10 -6 12 -5 7 2 -11 18 37 15 78 -4 28 -14 87 -91
78 -102 -2 -1 3 -9 11 -16 16 -16 30 -6 105 77 29 31 52 55 52 51 0 -7 18 11
64 68 21 26 41 46 45 44 3 -2 12 2 19 10 7 8 10 14 6 14 -4 0 8 14 26 30 18
17 38 30 43 30 6 0 8 3 4 6 -3 4 27 39 68 79 41 39 75 78 75 85 0 34 20 -10
23 -48 1 -23 5 -42 10 -42 4 0 7 -7 7 -15 0 -15 21 -23 78 -28 17 -2 35 -6 38
-10 3 -3 13 -3 22 -1 10 3 4 -2 -13 -12 -32 -18 -642 -627 -673 -672 -17 -25
-18 -50 -18 -289 1 -145 -2 -263 -6 -263 -4 0 -4 -9 0 -21 13 -35 -4 -138 -27
-162 -22 -24 -86 -53 -75 -35 5 7 2 8 -7 2 -8 -5 -38 -9 -68 -10 -57 -1 -86
-21 -74 -52 5 -11 3 -13 -8 -7 -11 7 -12 6 -3 -6 8 -9 10 -103 9 -294 -2 -299
-2 -297 50 -349 14 -14 25 -32 25 -41 0 -13 -23 -15 -170 -15 -191 0 -191 0
-123 71 l34 36 3 126 c1 89 6 130 16 142 11 14 11 16 0 13 -11 -2 -14 19 -16
104 0 69 3 105 9 101 6 -4 7 -1 2 8 -5 7 -9 42 -10 78 -2 73 -16 91 -68 86
-18 -1 -40 2 -51 7 -11 6 -16 6 -13 0 4 -5 -29 -8 -84 -7 -104 2 -118 -6 -120
-63 -1 -20 -1 -41 0 -46 1 -4 -4 -15 -11 -24 -8 -9 -8 -13 -2 -9 9 5 12 -61
11 -253 l-1 -260 32 -33 c18 -19 34 -42 36 -53 4 -17 -2 -21 -36 -23 -23 -1
-44 -2 -47 -3 -3 0 -10 0 -16 1 -5 1 -61 2 -122 2 -83 0 -113 3 -113 12 0 24
67 105 83 99 4 -1 6 18 4 43 -2 27 1 45 7 45 8 0 8 3 0 8 -13 9 -13 300 0 321
6 9 5 12 0 8 -6 -3 -10 34 -10 94 -1 117 -10 133 -77 135 -23 1 -49 2 -58 3
-8 0 -31 15 -50 32 l-34 30 -2 327 c-1 180 -6 338 -9 352 -4 14 -7 28 -6 32 1
5 -2 7 -6 5 -16 -4 -494 481 -486 494 5 8 3 9 -6 4 -9 -5 -34 14 -79 62 -36
39 -84 80 -106 91 -37 19 -38 21 -15 23 14 1 36 3 50 4 14 2 32 3 41 4 23 2
61 41 55 57 -3 7 -1 16 3 18 5 3 7 22 5 43 -2 38 -2 38 14 15 10 -13 38 -45
65 -72 26 -26 47 -53 47 -60 0 -6 4 -9 8 -6 11 6 318 -304 314 -316 -1 -5 1
-7 6 -4 5 3 20 -6 32 -19 40 -42 70 -29 75 34 2 21 23 45 70 79 6 4 25 8 44
10 25 3 31 0 25 -10 -6 -9 -3 -9 10 1 14 12 22 12 36 3 11 -7 21 -8 25 -2 8
12 197 10 215 -4 8 -5 12 -6 7 -1 -4 4 -1 18 7 30 8 12 13 42 12 72 -2 32 1
50 7 46 6 -4 7 -1 2 8 -5 7 -10 24 -11 38 -3 29 -19 40 -59 42 -124 6 -152 8
-167 11 -23 5 -69 49 -63 59 3 4 0 9 -6 11 -15 5 -20 121 -5 130 6 4 7 8 1 8
-12 0 -12 507 -1 558 4 17 12 32 17 32 6 0 8 4 4 9 -6 11 33 36 42 27 3 -3 11
1 18 8 11 10 92 13 384 12 l370 -1 32 -32z"/>
<path d="M1242 3056 c-26 -14 -57 -66 -40 -66 6 0 9 -3 6 -6 -4 -3 2 -14 13
-25 20 -20 20 -20 -1 -46 -11 -14 -20 -30 -20 -35 0 -13 37 -59 46 -58 4 1 11
-4 16 -12 6 -10 14 -6 33 17 24 28 24 29 44 10 12 -10 21 -14 21 -10 0 5 5 4
12 -3 16 -16 21 -15 45 6 39 34 43 54 17 85 -19 23 -21 31 -11 42 6 7 17 10
22 7 6 -3 7 -2 3 3 -4 4 -3 15 1 24 7 11 3 24 -13 42 -31 36 -49 40 -86 17
-18 -11 -36 -15 -39 -10 -14 22 -46 30 -69 18z m113 -36 l29 30 25 -25 25 -25
-29 -30 -29 -30 29 -30 29 -30 -24 -25 -24 -25 -31 30 -31 30 -29 -30 -29 -30
-26 25 -25 26 31 28 32 29 -31 31 -31 30 24 26 24 25 31 -30 31 -30 29 30z"/>
<path d="M1575 3058 c-24 -14 -44 -39 -45 -54 0 -6 9 -21 20 -34 15 -17 17
-27 9 -41 -5 -11 -14 -19 -19 -19 -20 0 -9 -42 18 -65 33 -30 42 -30 76 -4
l26 21 34 -30 c19 -17 32 -34 28 -38 -4 -4 -2 -4 5 0 7 4 10 13 7 20 -3 8 3
17 14 20 26 9 46 54 32 71 -15 18 -23 65 -11 65 12 0 21 39 10 46 -5 3 -7 9
-4 14 3 4 -2 11 -11 14 -8 3 -13 10 -10 14 10 16 -54 5 -73 -12 -19 -18 -21
-17 -47 3 -31 24 -32 24 -59 9z m57 -35 l28 -27 30 29 30 29 25 -25 25 -25
-30 -29 -30 -29 30 -31 30 -31 -25 -24 -25 -24 -30 29 -30 29 -30 -29 -30 -29
-25 24 -25 24 30 31 30 31 -30 29 -30 29 22 23 c27 29 26 29 60 -4z"/>
<path d="M1465 2719 c-22 -4 -50 -9 -63 -12 -30 -8 -118 -73 -120 -89 -1 -7
-3 -28 -5 -46 -3 -24 3 -44 25 -77 17 -25 36 -45 43 -45 8 0 17 -5 21 -12 5
-7 3 -8 -6 -3 -8 5 -11 4 -7 -3 4 -5 16 -8 27 -5 11 3 26 1 33 -4 18 -15 156
-7 185 10 6 5 12 5 12 1 0 -7 64 59 85 87 12 16 12 54 2 86 -10 29 -84 92
-116 99 -14 3 -37 9 -51 13 -14 4 -43 4 -65 0z m131 -48 c46 -21 84 -67 84
-103 0 -12 -9 -38 -20 -56 -57 -93 -267 -97 -338 -7 -47 60 -18 132 68 169 50
22 155 20 206 -3z"/>
<path d="M1466 1925 c-27 -29 -28 -41 -3 -78 19 -30 38 -29 70 1 31 29 25 63
-14 86 -28 17 -29 17 -53 -9z m59 -40 c0 -25 -4 -30 -25 -30 -16 0 -26 6 -28
18 -6 30 6 49 30 45 18 -2 23 -9 23 -33z"/>
<path d="M1457 1692 c-32 -35 -12 -89 36 -97 20 -4 28 1 42 31 15 32 15 37 1
60 -20 29 -56 32 -79 6z m62 -20 c12 -23 -12 -64 -34 -56 -20 8 -29 42 -15 59
17 20 37 19 49 -3z"/>
<path d="M1451 1443 c-27 -24 -34 -67 -13 -86 31 -26 40 -27 66 -6 32 25 34
61 4 89 -27 24 -30 25 -57 3z m49 -28 c15 -18 7 -43 -16 -52 -24 -9 -46 24
-33 48 12 23 32 24 49 4z"/>
</g>
</svg>
