<?xml version="1.0" standalone="no"?>
<!DOCTYPE svg PUBLIC "-//W3C//DTD SVG 20010904//EN"
 "http://www.w3.org/TR/2001/REC-SVG-20010904/DTD/svg10.dtd">
<svg version="1.0" xmlns="http://www.w3.org/2000/svg"
 width="300.000000pt" height="354.000000pt" viewBox="0 0 300.000000 354.000000"
 preserveAspectRatio="xMidYMid meet">
<metadata>
Created by potrace 1.10, written by Peter Selinger 2001-2011
</metadata>
<g transform="translate(0.000000,354.000000) scale(0.100000,-0.100000)"
fill="#000000" stroke="none">
<path d="M1095 3231 c-17 -10 -40 -31 -50 -47 -19 -27 -20 -48 -20 -386 0
-346 1 -357 21 -385 45 -60 78 -73 185 -73 l99 0 0 -84 0 -84 -179 -4 c-163
-3 -182 -5 -207 -24 -49 -36 -65 -67 -71 -135 l-5 -64 -322 -323 c-322 -324
-345 -344 -446 -378 -19 -6 1 -12 89 -24 133 -17 124 -6 138 -165 l8 -90 30
73 c29 69 41 83 270 312 l240 240 -3 -281 c-2 -238 0 -289 13 -330 23 -68 60
-92 147 -97 l68 -4 0 -307 0 -307 -28 -21 c-31 -23 -62 -79 -62 -112 0 -21 4
-21 194 -21 107 0 197 3 199 8 9 13 -21 84 -47 111 l-26 27 0 312 0 312 145 0
145 0 0 -312 0 -312 -30 -25 c-29 -25 -63 -97 -53 -113 2 -5 92 -8 199 -8 189
0 194 1 194 20 0 28 -23 70 -54 99 l-26 24 0 314 0 313 75 0 c87 0 122 14 157
62 23 32 23 38 28 347 l5 314 230 -237 c214 -219 232 -241 260 -308 l30 -71
15 109 c8 60 18 114 23 121 4 7 52 14 118 18 61 4 107 11 102 15 -4 4 -35 18
-68 31 -54 22 -86 51 -385 352 l-325 329 -6 55 c-7 58 -27 93 -73 127 -25 19
-44 21 -207 24 l-179 4 0 84 0 84 108 0 c123 0 162 14 200 69 l23 35 -3 362
-3 362 -25 27 c-52 55 -49 55 -452 55 -346 0 -375 -1 -403 -19z m63 -19 c-12
-16 -11 -16 6 -2 21 17 105 22 123 8 7 -5 13 -5 17 0 8 13 92 8 89 -5 -1 -5 5
-10 12 -10 11 0 12 4 5 13 -8 9 6 12 64 10 41 0 78 -4 82 -8 4 -4 13 -3 20 3
16 13 37 2 27 -14 -3 -7 2 -5 13 4 23 18 89 25 99 9 5 -7 11 -8 19 -1 19 16
146 8 157 -10 5 -8 9 -10 9 -5 0 5 11 -1 25 -14 23 -21 37 -68 17 -56 -5 3 -9
-1 -9 -8 0 -8 5 -12 11 -10 8 3 11 -77 11 -281 0 -157 -3 -285 -8 -285 -4 0
-5 -6 -1 -12 5 -7 8 -23 7 -35 -1 -13 -1 -35 -2 -49 -1 -16 -5 -23 -13 -18 -7
4 -8 3 -4 -5 8 -12 -18 -44 -28 -34 -3 4 -6 2 -6 -4 0 -19 -53 -29 -153 -28
-74 1 -101 -2 -110 -13 -19 -24 -18 -174 2 -190 10 -8 10 -11 2 -6 -9 4 -12 3
-7 -4 4 -6 68 -11 178 -12 147 -1 175 -3 192 -18 11 -9 16 -11 12 -4 -12 21 2
13 29 -15 14 -16 23 -34 20 -41 -3 -7 -1 -11 4 -8 5 3 12 -1 15 -10 4 -10 2
-13 -7 -8 -8 5 -7 2 2 -9 11 -14 11 -17 0 -18 -10 0 -11 -2 -2 -6 9 -3 10 -10
4 -22 -6 -11 -6 -22 1 -32 8 -11 9 -10 4 4 -3 11 -2 16 4 12 6 -3 10 -13 10
-21 0 -7 9 -19 20 -26 11 -7 20 -19 20 -26 0 -7 5 -10 10 -7 9 6 14 -8 11 -28
-1 -5 2 -6 7 -3 5 3 18 -2 28 -10 10 -9 13 -12 5 -8 -9 5 -12 3 -7 -4 4 -7 13
-12 20 -12 8 0 21 -11 29 -24 14 -21 14 -25 -1 -42 -17 -18 -16 -18 5 0 22 19
23 18 68 -29 24 -26 42 -52 38 -58 -3 -6 -1 -7 5 -3 14 8 100 -77 113 -111 5
-13 12 -23 16 -22 5 1 14 1 22 0 11 -1 11 -4 0 -18 -10 -12 -10 -15 -1 -9 8 5
48 -29 119 -99 58 -58 121 -113 140 -122 18 -8 32 -17 31 -19 -2 -2 -28 -5
-58 -8 -86 -7 -90 -9 -107 -78 -3 -13 -7 -35 -8 -51 -1 -15 -5 -30 -10 -35 -5
-4 -6 -2 -2 3 3 6 -6 28 -19 50 -13 22 -24 36 -24 31 0 -5 -13 7 -29 27 -15
20 -31 34 -35 30 -5 -6 -10 11 -7 29 0 4 -6 5 -14 2 -8 -4 -15 -2 -15 3 0 6
-20 30 -45 54 -25 24 -45 51 -45 59 0 13 -1 13 -10 0 -7 -11 -10 -12 -10 -2 0
8 -10 23 -22 34 -13 11 -17 16 -9 12 9 -5 12 -3 7 5 -4 6 -11 9 -15 7 -12 -8
-73 62 -65 75 4 8 3 9 -4 5 -6 -4 -36 17 -69 49 -32 30 -61 55 -65 55 -4 0
-13 -8 -20 -19 -10 -13 -13 -67 -13 -204 0 -102 -3 -180 -7 -174 -6 9 -8 9 -8
0 0 -6 4 -14 8 -17 5 -3 7 -27 5 -53 -2 -26 -4 -52 -5 -58 0 -5 3 -25 6 -43 5
-25 3 -32 -5 -26 -8 4 -9 3 -5 -4 4 -7 4 -18 -1 -24 -4 -7 -8 -19 -9 -27 -2
-7 -13 -24 -25 -37 -18 -20 -25 -22 -38 -11 -12 9 -13 9 -7 0 4 -7 4 -13 -1
-14 -4 0 -16 -2 -25 -4 -10 -2 -21 1 -24 6 -4 7 -10 6 -17 0 -7 -5 -23 -9 -37
-10 -40 -1 -60 -4 -55 -9 3 -3 -3 -11 -13 -19 -9 -8 -12 -12 -5 -9 12 7 12
-61 0 -81 -4 -6 -1 -13 5 -16 10 -3 10 -7 1 -19 -7 -8 -10 -18 -6 -22 10 -10
12 -76 2 -70 -5 3 -9 0 -9 -5 0 -6 5 -11 11 -11 8 0 9 -4 0 -13 -6 -8 -8 -16
-5 -19 19 -20 12 -104 -8 -92 -7 4 -8 2 -4 -5 4 -6 11 -9 15 -7 4 3 7 -55 7
-128 l-1 -133 31 -26 c18 -15 34 -38 37 -52 4 -24 2 -25 -24 -21 -16 2 -29 0
-29 -5 0 -6 -5 -7 -10 -4 -6 4 -7 12 -3 18 4 7 0 6 -10 -2 -13 -10 -20 -11
-30 -2 -9 7 -17 7 -24 0 -11 -11 -143 -19 -143 -8 0 3 -11 4 -24 2 -32 -7 -39
10 -16 35 11 12 20 25 20 29 0 4 14 21 30 37 16 16 27 33 23 39 -11 18 -11
112 1 126 6 8 6 12 1 9 -7 -4 -11 10 -11 37 0 25 4 41 10 38 5 -3 6 -1 2 5
-11 19 -16 101 -6 107 7 4 6 13 0 25 -11 20 -8 60 6 81 5 8 3 9 -6 4 -9 -6
-12 -4 -8 6 13 36 19 63 10 50 -7 -10 -9 -6 -9 14 0 19 2 23 8 14 7 -11 9 -11
9 2 0 8 -6 21 -12 28 -11 11 -10 12 2 6 12 -6 12 -5 3 5 -6 7 -9 19 -6 28 4 9
2 13 -4 9 -6 -4 -13 0 -17 8 -3 8 -13 15 -22 15 -10 0 -26 8 -36 17 -15 14
-19 14 -16 3 2 -12 -8 -15 -42 -15 -25 0 -51 4 -57 9 -8 5 -13 5 -13 -1 0 -5
-19 -8 -42 -8 -24 1 -54 -5 -68 -12 -25 -14 -25 -16 -25 -146 1 -73 -3 -140
-8 -151 -6 -13 -6 -16 2 -12 6 4 11 3 11 -3 0 -5 -5 -13 -10 -16 -6 -4 -7 -12
-3 -18 15 -24 10 -121 -6 -135 -14 -11 -14 -11 1 -6 18 6 19 -10 4 -35 -6 -9
-5 -12 1 -8 6 4 9 -12 8 -41 -2 -45 20 -112 37 -112 11 0 39 -58 30 -63 -4 -2
-38 -4 -76 -5 -38 -2 -72 -5 -77 -8 -5 -3 -12 1 -15 9 -6 16 -28 17 -41 2 -4
-4 -2 -5 6 0 10 5 12 4 7 -4 -4 -6 -11 -9 -16 -6 -4 3 -33 6 -62 6 -39 1 -55
5 -55 15 0 8 5 14 10 14 6 0 7 3 4 7 -10 10 34 54 46 46 6 -3 7 -1 3 5 -4 7
-4 12 1 12 15 0 31 48 20 59 -7 7 -5 17 8 32 12 12 14 19 6 17 -9 -2 -14 12
-17 50 -3 28 -1 52 4 52 4 0 8 9 9 20 1 11 -1 18 -5 16 -4 -3 -9 7 -10 22 -1
21 0 24 8 12 13 -20 13 -4 0 21 -7 13 -7 25 -1 38 6 10 7 21 4 25 -10 10 -14
48 -5 42 5 -3 9 1 9 9 0 8 -4 12 -9 9 -11 -7 -10 3 3 28 8 15 8 19 0 14 -6 -4
-11 -2 -11 3 0 6 6 11 13 11 9 0 8 3 -2 9 -8 5 -10 14 -5 22 11 18 13 49 2 43
-9 -6 -10 8 -2 30 3 9 11 13 17 9 6 -3 7 -1 3 6 -4 6 -12 8 -18 5 -7 -5 -9 -1
-5 9 3 10 2 17 -4 17 -6 0 -7 5 -4 10 3 6 1 10 -5 10 -6 0 -8 5 -4 12 4 6 3 8
-4 4 -6 -3 -14 -2 -17 4 -4 7 -11 7 -18 2 -7 -5 -25 -8 -42 -7 -44 3 -47 4
-40 14 3 5 1 13 -5 16 -6 4 -9 3 -8 -2 3 -9 -12 -12 -29 -6 -7 3 -10 9 -7 14
3 5 -2 12 -10 15 -9 3 -13 10 -10 15 3 5 0 9 -6 9 -7 0 -10 32 -10 93 0 50 0
124 0 162 -1 39 -1 102 -1 140 2 143 -3 224 -13 218 -5 -4 -7 1 -3 11 6 14 4
15 -15 5 -12 -7 -37 -28 -55 -47 -18 -19 -33 -31 -34 -26 0 5 -5 -2 -10 -15
-6 -15 -14 -21 -25 -17 -9 3 -12 2 -9 -5 9 -13 -34 -51 -48 -42 -6 3 -7 1 -3
-6 8 -13 -20 -45 -33 -37 -5 3 -8 -2 -7 -12 0 -10 -6 -16 -16 -16 -10 1 -16
-1 -13 -5 7 -13 -102 -124 -114 -117 -7 5 -10 2 -9 -6 2 -7 -3 -12 -10 -10 -8
1 -11 -2 -7 -7 3 -6 -16 -32 -43 -58 -26 -26 -56 -59 -66 -73 -10 -15 -15 -18
-12 -7 3 9 1 17 -3 17 -5 0 -8 11 -7 25 6 50 -38 94 -86 86 -5 0 -8 4 -8 10 0
5 -8 9 -18 8 -9 -1 -26 -1 -37 0 -16 1 -14 4 10 15 17 7 49 32 73 55 24 23 47
39 52 36 5 -3 12 0 16 6 4 8 3 9 -4 5 -27 -17 -8 9 43 60 31 29 61 53 68 51 7
-1 11 4 9 12 -4 18 18 42 32 34 6 -3 8 -3 4 2 -8 8 51 73 66 71 5 -1 13 9 17
22 5 13 13 20 19 17 5 -3 10 -1 10 5 0 6 7 18 15 26 8 9 15 12 15 8 0 -4 11 7
24 25 27 37 60 63 70 56 3 -3 4 -2 1 2 -8 10 16 33 28 26 6 -4 7 -1 2 7 -9 15
42 63 58 53 6 -3 7 -1 3 6 -8 12 18 44 28 34 3 -4 6 0 6 9 0 8 9 23 21 34 14
13 19 27 17 46 -3 16 -2 28 2 28 4 0 6 16 5 35 -1 19 1 33 4 30 4 -2 12 9 19
25 7 15 23 31 35 35 12 4 29 9 37 12 15 4 77 7 113 4 10 0 15 -5 12 -11 -3 -6
1 -7 9 -4 9 3 14 10 11 14 -6 10 21 7 31 -3 10 -9 26 -9 20 1 -6 10 97 7 114
-3 8 -5 11 -4 7 1 -3 6 6 15 21 22 20 9 27 19 27 41 0 16 -2 28 -5 26 -3 -2
-5 23 -4 56 1 32 -3 59 -8 59 -5 0 -6 5 -3 10 4 6 1 9 -7 8 -7 -2 -12 4 -10
12 3 12 1 13 -9 3 -16 -16 -43 -17 -33 -1 4 7 3 8 -4 4 -19 -11 -53 -16 -47
-6 3 5 1 12 -5 15 -6 4 -9 1 -8 -7 2 -9 -9 -13 -37 -12 -22 0 -39 5 -38 11 1
5 -4 10 -12 10 -8 0 -11 -5 -8 -10 3 -5 -8 1 -25 13 -34 25 -58 72 -46 91 4 8
3 10 -4 5 -15 -9 -15 -1 -1 26 7 13 7 18 1 14 -11 -7 -11 32 0 50 4 5 3 16 -2
24 -4 7 -5 23 0 35 5 12 4 28 -1 36 -12 20 -11 32 3 23 6 -4 8 -3 5 3 -11 18
-18 75 -8 69 10 -6 5 39 -5 56 -3 4 1 8 8 9 10 0 11 2 0 6 -10 4 -10 8 0 21 7
9 9 13 3 10 -6 -4 -10 29 -10 92 0 63 4 96 10 92 6 -3 4 2 -4 11 -11 14 -11
17 0 18 9 0 10 2 2 5 -14 6 9 80 25 77 5 -1 8 7 5 17 -4 13 0 20 10 20 8 0 19
6 25 13 6 7 20 13 32 14 19 2 20 0 8 -15z"/>
<path d="M1236 3198 c3 -5 10 -6 15 -3 13 9 11 12 -6 12 -8 0 -12 -4 -9 -9z"/>
<path d="M1315 3189 c-4 -6 -5 -12 -2 -15 2 -3 7 2 10 11 7 17 1 20 -8 4z"/>
<path d="M1686 3166 c3 -9 1 -16 -4 -16 -6 0 -22 -11 -35 -24 -14 -14 -28 -23
-31 -20 -3 2 -4 1 -1 -3 7 -9 -16 -34 -26 -27 -5 3 -9 -2 -9 -11 0 -9 -3 -14
-7 -12 -10 5 -43 -30 -35 -37 3 -3 0 -6 -5 -6 -19 0 1 -53 21 -56 25 -4 25 -5
29 -57 1 -27 10 -54 21 -66 11 -12 15 -25 10 -33 -6 -10 -4 -10 9 1 11 8 17 9
17 3 0 -7 7 -9 17 -5 9 4 14 2 10 -3 -3 -6 9 -9 27 -9 31 1 85 31 86 48 0 5 4
5 10 2 6 -4 7 1 3 11 -4 10 -2 15 4 11 5 -3 10 0 10 8 0 8 -5 11 -11 8 -7 -4
-7 -1 0 6 13 14 7 51 -7 51 -5 0 -9 6 -9 14 0 7 -10 20 -22 28 -21 14 -21 16
-6 31 8 9 18 14 20 11 3 -2 10 7 16 21 15 32 4 32 -31 -1 -27 -25 -29 -25 -47
-9 -18 17 -21 16 -67 -23 -48 -39 -49 -40 -71 -22 -12 10 -22 20 -22 22 0 2
32 32 71 67 l70 64 40 -39 c28 -28 42 -35 50 -27 8 8 -2 20 -35 44 -25 19 -45
39 -46 46 0 6 -4 15 -10 18 -6 3 -7 -1 -4 -9z m24 -172 c0 -2 -7 -4 -15 -4 -8
0 -15 4 -15 10 0 5 7 7 15 4 8 -4 15 -8 15 -10z m44 -54 c25 -25 25 -76 0
-101 -11 -11 -36 -22 -56 -26 -30 -4 -41 -1 -62 20 -57 57 -10 146 69 132 16
-3 39 -14 49 -25z"/>
<path d="M1661 2902 c-8 -15 -7 -23 4 -32 23 -19 50 -8 50 20 0 32 -39 41 -54
12z"/>
<path d="M1296 3137 c-14 -15 -26 -24 -26 -21 0 3 -13 -10 -30 -28 -31 -34
-37 -48 -19 -48 5 0 7 -4 4 -10 -3 -5 -2 -10 4 -10 5 0 17 -7 26 -16 12 -12
13 -19 4 -30 -6 -8 -16 -11 -23 -7 -6 3 -8 3 -4 -2 4 -4 2 -17 -5 -29 -16 -28
-18 -67 -6 -83 6 -6 7 -18 3 -24 -4 -8 -3 -9 5 -5 6 4 14 0 17 -8 3 -9 14 -16
24 -16 11 0 21 -4 24 -9 4 -6 21 -5 42 1 28 7 39 7 46 -4 6 -9 7 -5 2 12 -3
14 -3 22 1 18 4 -4 16 2 26 14 17 18 23 18 21 -3 -1 -3 5 -6 13 -6 10 0 8 8
-7 30 -12 17 -17 27 -10 23 7 -4 12 -1 12 8 0 9 -4 16 -8 16 -13 0 -8 36 7 54
11 13 16 14 29 4 13 -11 14 -11 8 0 -4 7 -2 19 4 27 9 11 8 21 -6 45 -10 16
-24 30 -30 30 -6 0 -19 10 -28 23 -9 12 -14 15 -11 7 6 -13 5 -13 -7 0 -8 8
-28 28 -45 44 l-32 28 -25 -25z m99 -71 l70 -64 -25 -20 -24 -20 -43 36 c-24
20 -43 41 -43 46 0 5 -10 0 -22 -12 -23 -20 -23 -20 -47 -1 l-24 20 38 39 c22
22 42 40 45 40 3 0 36 -29 75 -64z m-55 -73 c0 -3 -6 -3 -12 0 -7 2 -22 0 -33
-5 -19 -9 -19 -8 -2 6 17 13 47 12 47 -1z m36 -46 c54 -47 27 -121 -48 -134
-30 -4 -41 -1 -62 20 -75 75 30 182 110 114z"/>
<path d="M1302 2911 c-20 -12 -10 -45 14 -49 29 -4 51 23 34 43 -14 17 -29 19
-48 6z"/>
<path d="M1406 3142 c-2 -4 -1 -14 4 -22 7 -11 9 -9 7 8 -1 24 -3 26 -11 14z"/>
<path d="M1163 2893 c0 -9 4 -10 14 -2 7 6 13 12 13 14 0 1 -6 2 -13 2 -8 0
-14 -6 -14 -14z"/>
<path d="M1806 2758 c3 -5 10 -6 15 -3 13 9 11 12 -6 12 -8 0 -12 -4 -9 -9z"/>
<path d="M1836 2742 c-3 -5 1 -9 9 -9 8 0 12 4 9 9 -3 4 -7 8 -9 8 -2 0 -6 -4
-9 -8z"/>
<path d="M1462 2715 c2 -11 -3 -20 -9 -21 -7 -1 -14 -2 -15 -4 -2 -1 -12 -4
-23 -6 -52 -12 -77 -25 -101 -50 -12 -13 -25 -20 -29 -16 -4 4 -5 3 -4 -3 2
-5 -3 -21 -10 -33 -17 -31 -7 -39 16 -13 49 57 70 72 116 86 93 27 194 11 248
-41 43 -41 38 -54 -22 -54 -39 0 -55 5 -67 20 -32 39 -152 34 -152 -6 0 -10
-16 -14 -60 -14 -33 0 -60 -4 -60 -10 0 -15 116 -12 132 3 30 28 67 41 82 28
8 -7 19 -10 25 -7 5 4 18 -4 28 -17 15 -19 26 -22 72 -20 31 1 61 9 71 18 9 8
20 12 25 8 4 -5 5 -2 1 5 -4 7 -11 10 -16 7 -4 -3 -11 6 -14 20 -4 14 -11 25
-17 25 -6 0 -7 5 -4 10 4 6 3 9 -2 8 -5 -2 -19 7 -33 20 -13 12 -30 20 -37 18
-7 -3 -15 0 -19 6 -5 7 -2 8 6 3 9 -5 11 -4 6 4 -5 8 -12 9 -20 2 -6 -5 -17
-6 -25 -2 -7 4 -28 6 -48 4 -19 -2 -32 0 -29 5 2 4 0 14 -5 22 -8 12 -9 11 -7
-5z"/>
<path d="M1526 2562 c-2 -4 -1 -14 3 -21 6 -10 10 -9 14 3 6 16 -8 32 -17 18z"/>
<path d="M1773 2435 c0 -8 4 -12 9 -9 5 3 6 10 3 15 -9 13 -12 11 -12 -6z"/>
<path d="M1836 2421 c-3 -5 1 -14 8 -20 10 -9 16 -9 21 -1 4 6 1 9 -7 8 -7 -2
-12 3 -10 10 2 14 -4 16 -12 3z"/>
<path d="M1436 2027 c3 -10 9 -15 12 -12 3 3 0 11 -7 18 -10 9 -11 8 -5 -6z"/>
<path d="M1066 1981 c-3 -5 2 -15 12 -22 15 -12 16 -12 5 2 -7 9 -10 19 -6 22
3 4 4 7 0 7 -3 0 -8 -4 -11 -9z"/>
<path d="M1726 1948 c3 -5 10 -6 15 -3 13 9 11 12 -6 12 -8 0 -12 -4 -9 -9z"/>
<path d="M1496 1943 c-4 -5 -11 -8 -16 -8 -5 0 -18 -11 -29 -24 -16 -18 -18
-27 -10 -38 9 -10 8 -17 -2 -30 -13 -16 -12 -17 3 -4 15 11 19 11 24 -2 3 -9
12 -13 21 -10 10 4 14 2 10 -4 -3 -5 0 -10 8 -10 8 0 13 3 10 5 -6 7 38 38 48
34 5 -1 5 3 1 10 -5 7 -9 21 -9 30 -1 10 -4 19 -6 21 -2 1 -13 10 -25 20 -11
9 -24 14 -28 10z m22 -35 c28 -28 -3 -83 -33 -58 -8 7 -15 20 -15 29 0 17 18
41 30 41 3 0 11 -5 18 -12z"/>
<path d="M1820 1935 c0 -2 6 -8 13 -14 10 -8 14 -7 14 2 0 8 -6 14 -14 14 -7
0 -13 -1 -13 -2z"/>
<path d="M1966 1881 c-4 -5 -2 -12 3 -15 5 -4 12 -2 15 3 4 5 2 12 -3 15 -5 4
-12 2 -15 -3z"/>
<path d="M1336 1861 c-4 -5 -2 -12 4 -16 6 -4 7 -12 4 -18 -4 -7 -4 -9 1 -5 4
4 15 2 24 -4 13 -10 13 -9 -1 7 -9 11 -17 24 -16 28 0 14 -10 19 -16 8z"/>
<path d="M1266 1848 c3 -5 10 -6 15 -3 13 9 11 12 -6 12 -8 0 -12 -4 -9 -9z"/>
<path d="M1976 1748 c3 -5 10 -6 15 -3 13 9 11 12 -6 12 -8 0 -12 -4 -9 -9z"/>
<path d="M1460 1695 c-17 -21 -30 -74 -19 -81 5 -3 6 -11 3 -17 -4 -7 -4 -9 1
-5 4 4 16 3 26 -2 11 -6 20 -6 24 -1 3 6 14 8 25 6 12 -2 18 0 16 4 -3 4 4 23
16 42 11 19 17 31 13 27 -5 -4 -16 2 -26 14 -22 24 -64 32 -79 13z m60 -46 c0
-33 -22 -48 -45 -29 -19 16 -19 35 0 54 22 22 45 9 45 -25z m-59 -36 c13 -16
12 -17 -3 -4 -17 13 -22 21 -14 21 2 0 10 -8 17 -17z"/>
<path d="M2221 1674 c0 -11 3 -14 6 -6 3 7 2 16 -1 19 -3 4 -6 -2 -5 -13z"/>
<path d="M716 1661 c-3 -5 2 -15 12 -22 15 -12 16 -12 5 2 -7 9 -10 19 -6 22
3 4 4 7 0 7 -3 0 -8 -4 -11 -9z"/>
<path d="M1099 1653 c-13 -16 -12 -17 4 -4 9 7 17 15 17 17 0 8 -8 3 -21 -13z"/>
<path d="M1635 1481 c-3 -5 -2 -12 3 -15 5 -3 9 1 9 9 0 17 -3 19 -12 6z"/>
<path d="M914 1458 c-4 -7 -4 -10 1 -6 4 4 15 2 24 -5 14 -11 14 -10 2 6 -16
20 -18 21 -27 5z"/>
<path d="M599 1443 c-13 -16 -12 -17 4 -4 9 7 17 15 17 17 0 8 -8 3 -21 -13z"/>
<path d="M1446 1434 c-16 -17 -24 -34 -22 -48 3 -11 5 -24 5 -27 1 -8 44 -25
59 -23 6 1 17 2 22 3 6 0 9 4 8 9 -1 4 3 16 9 28 7 12 8 26 3 34 -5 8 -6 18
-4 22 3 4 0 9 -5 9 -20 3 -26 4 -37 11 -7 4 -23 -4 -38 -18z m54 -23 c13 -25
13 -27 -5 -45 -22 -21 -45 -9 -45 23 0 45 30 58 50 22z"/>
<path d="M456 1422 c-3 -5 1 -9 9 -9 8 0 12 4 9 9 -3 4 -7 8 -9 8 -2 0 -6 -4
-9 -8z"/>
<path d="M1189 1393 c-13 -16 -12 -17 4 -4 16 13 21 21 13 21 -2 0 -10 -8 -17
-17z"/>
<path d="M363 1385 c0 -8 4 -12 9 -9 5 3 6 10 3 15 -9 13 -12 11 -12 -6z"/>
<path d="M1296 1358 c3 -5 10 -6 15 -3 13 9 11 12 -6 12 -8 0 -12 -4 -9 -9z"/>
<path d="M1353 1315 c-3 -9 -3 -18 -1 -21 3 -3 8 4 11 16 6 23 -1 27 -10 5z"/>
<path d="M1227 1309 c7 -9 9 -20 5 -25 -4 -4 1 -2 11 5 9 7 17 16 17 19 0 3
-3 2 -7 -1 -3 -4 -13 -1 -22 6 -14 10 -14 10 -4 -4z"/>
<path d="M1353 1265 c0 -8 4 -12 9 -9 5 3 6 10 3 15 -9 13 -12 11 -12 -6z"/>
<path d="M1745 1271 c-3 -5 -2 -12 3 -15 5 -3 9 1 9 9 0 17 -3 19 -12 6z"/>
<path d="M1956 1217 c3 -10 9 -15 12 -12 3 3 0 11 -7 18 -10 9 -11 8 -5 -6z"/>
<path d="M1253 1173 c1 -17 4 -19 14 -11 15 12 18 22 4 14 -5 -4 -11 0 -14 6
-3 7 -4 3 -4 -9z"/>
<path d="M2035 1171 c-3 -5 -2 -12 3 -15 5 -3 9 1 9 9 0 17 -3 19 -12 6z"/>
<path d="M1009 1113 c-13 -16 -12 -17 4 -4 9 7 17 15 17 17 0 8 -8 3 -21 -13z"/>
<path d="M915 1049 c-3 -4 2 -6 10 -5 21 3 28 13 10 13 -9 0 -18 -4 -20 -8z"/>
<path d="M976 1043 c-6 -14 -5 -15 5 -6 7 7 10 15 7 18 -3 3 -9 -2 -12 -12z"/>
<path d="M1841 1047 c-8 -10 -7 -14 2 -14 8 0 14 6 14 14 0 7 -1 13 -2 13 -2
0 -8 -6 -14 -13z"/>
<path d="M1155 1019 c-4 -6 -4 -13 -1 -16 3 -4 6 -1 6 6 0 7 5 9 12 5 7 -4 8
-3 4 4 -9 15 -13 15 -21 1z"/>
<path d="M1434 979 c-3 -6 -2 -15 3 -20 5 -5 9 -1 9 11 0 23 -2 24 -12 9z"/>
<path d="M1285 729 c-4 -6 -5 -12 -2 -15 2 -3 7 2 10 11 7 17 1 20 -8 4z"/>
<path d="M1135 569 c-4 -6 -5 -12 -2 -15 2 -3 7 2 10 11 7 17 1 20 -8 4z"/>
<path d="M1800 260 c0 -5 5 -10 11 -10 5 0 7 5 4 10 -3 6 -8 10 -11 10 -2 0
-4 -4 -4 -10z"/>
<path d="M1646 237 c3 -10 9 -15 12 -12 3 3 0 11 -7 18 -10 9 -11 8 -5 -6z"/>
</g>
</svg>
