<?xml version="1.0" standalone="no"?>
<!DOCTYPE svg PUBLIC "-//W3C//DTD SVG 20010904//EN"
 "http://www.w3.org/TR/2001/REC-SVG-20010904/DTD/svg10.dtd">
<svg version="1.0" xmlns="http://www.w3.org/2000/svg"
 width="300.000000pt" height="354.000000pt" viewBox="0 0 300.000000 354.000000"
 preserveAspectRatio="xMidYMid meet">
<metadata>
Created by potrace 1.10, written by Peter Selinger 2001-2011
</metadata>
<g transform="translate(0.000000,354.000000) scale(0.100000,-0.100000)"
fill="#000000" stroke="none">
<path d="M1095 3231 c-17 -10 -40 -31 -50 -47 -19 -27 -20 -48 -20 -386 0
-346 1 -357 21 -385 45 -60 78 -73 185 -73 l99 0 0 -84 0 -84 -179 -4 c-163
-3 -182 -5 -207 -24 -49 -36 -65 -67 -71 -135 l-5 -64 -322 -323 c-324 -326
-327 -329 -446 -378 -20 -9 -6 -13 88 -24 62 -7 116 -18 119 -24 4 -6 12 -60
18 -120 l10 -110 29 69 c27 66 44 85 265 308 130 130 238 237 241 237 3 0 4
-124 2 -276 -2 -233 0 -285 13 -325 23 -68 60 -93 147 -97 l68 -4 0 -307 0
-307 -28 -21 c-31 -23 -62 -79 -62 -112 0 -21 4 -21 193 -21 107 0 196 2 199
5 12 13 -8 68 -38 104 l-34 39 0 311 0 311 145 0 145 0 0 -314 0 -314 -25 -16
c-26 -17 -48 -54 -59 -98 l-6 -28 200 0 c195 0 200 1 200 20 0 28 -23 70 -54
99 l-26 24 0 314 0 313 75 0 c87 0 122 14 157 62 23 32 23 38 28 347 l5 314
230 -237 c208 -214 233 -243 261 -307 l31 -70 13 108 c7 59 16 113 22 120 5 6
56 14 119 19 61 3 107 10 102 14 -4 4 -35 18 -68 31 -54 22 -86 51 -385 352
l-325 329 -6 55 c-7 58 -27 93 -73 127 -25 19 -44 21 -207 24 l-179 4 0 84 0
84 108 0 c123 0 162 14 200 69 l23 35 -3 362 -3 362 -25 27 c-52 55 -49 55
-452 55 -346 0 -375 -1 -403 -19z m63 -19 c-12 -16 -11 -16 6 -2 21 17 105 22
123 8 7 -5 13 -5 17 0 8 13 92 8 89 -5 -1 -5 5 -10 12 -10 11 0 12 4 5 13 -8
9 6 12 64 10 41 0 78 -4 82 -8 4 -4 13 -3 20 3 16 13 37 2 27 -14 -3 -7 2 -5
13 4 23 18 89 25 99 9 5 -7 11 -8 19 -1 19 16 146 8 157 -10 5 -8 9 -10 9 -5
0 5 11 -1 25 -14 23 -21 37 -68 17 -56 -5 3 -9 -1 -9 -8 0 -8 5 -12 11 -10 15
6 17 -558 2 -568 -12 -8 -17 -40 -5 -32 5 3 6 10 3 16 -4 7 -2 8 4 4 8 -5 8
-15 2 -32 -7 -18 -7 -23 1 -18 15 9 3 -46 -13 -61 -8 -7 -8 -6 -3 4 5 10 4 12
-4 7 -6 -4 -9 -12 -6 -17 5 -8 -19 -42 -27 -39 -2 1 -10 -1 -18 -3 -40 -13
-60 -14 -61 -4 0 8 -2 7 -6 -1 -4 -10 -8 -10 -21 0 -12 10 -14 10 -8 1 4 -7 2
-13 -3 -13 -6 0 -11 4 -11 8 0 5 -7 9 -15 9 -8 0 -12 -4 -9 -9 3 -5 -19 -7
-50 -4 -32 2 -54 0 -50 -5 3 -5 1 -9 -5 -9 -5 0 -11 3 -14 8 -2 4 -2 1 0 -6 6
-26 -9 -33 -30 -15 l-22 18 19 -22 c10 -13 22 -21 25 -18 4 2 8 -8 9 -23 1
-21 0 -24 -8 -12 -5 8 -10 10 -10 5 0 -6 6 -17 13 -24 10 -10 8 -14 -6 -23
-17 -9 -17 -12 -3 -26 8 -10 14 -19 14 -22 -1 -3 2 -15 6 -27 6 -20 13 -21
133 -22 69 -1 129 -3 133 -6 4 -2 21 0 38 5 21 5 34 5 38 -2 3 -5 15 -8 25 -5
19 5 46 -27 41 -46 -1 -5 2 -6 7 -2 14 8 32 -30 38 -77 3 -26 1 -38 -6 -33
-28 17 -2 -14 99 -116 60 -62 107 -117 103 -122 -3 -6 -1 -7 5 -3 10 6 72 -48
72 -63 0 -4 12 -13 26 -20 25 -11 29 -39 5 -33 -7 1 -10 -2 -6 -8 5 -8 12 -7
23 2 13 11 15 11 10 -3 -4 -9 -1 -16 8 -16 7 0 10 5 7 11 -4 6 1 5 10 -3 9 -7
14 -18 10 -24 -3 -5 -1 -7 4 -4 6 4 16 0 23 -8 7 -8 10 -15 6 -15 -3 0 3 -9
14 -20 11 -11 24 -20 30 -20 5 0 14 -9 20 -21 6 -11 26 -34 43 -51 18 -17 31
-34 29 -39 -1 -5 2 -8 6 -7 4 2 35 -23 68 -56 32 -32 68 -62 79 -67 18 -9 18
-9 -2 -5 -13 2 -25 1 -27 -3 -3 -4 -22 -7 -43 -6 -32 1 -41 -4 -56 -27 -9 -16
-15 -40 -13 -53 3 -14 1 -27 -4 -30 -4 -3 -6 -15 -3 -28 4 -17 0 -14 -19 12
-12 19 -28 43 -34 53 -6 10 -14 15 -17 11 -4 -3 -7 -1 -7 5 0 7 -3 11 -7 11
-21 -3 -24 3 -12 18 8 9 9 14 3 10 -7 -4 -23 2 -35 14 -13 11 -18 17 -10 13 9
-5 12 -3 7 5 -4 6 -10 9 -14 7 -4 -2 -16 2 -27 10 -10 8 -16 14 -12 14 3 0 -6
12 -21 27 -15 15 -29 26 -30 24 -5 -3 -31 32 -32 42 0 5 5 5 12 1 7 -4 8 -3 4
5 -6 9 -11 9 -22 0 -8 -6 -15 -9 -15 -5 -1 3 -2 9 -3 14 0 4 -32 38 -71 76
-38 37 -69 72 -67 77 1 6 -1 8 -6 5 -5 -3 -22 9 -38 27 -28 30 -63 50 -49 27
3 -5 0 -13 -8 -16 -8 -3 -14 -13 -12 -22 1 -9 -2 -25 -6 -34 -6 -10 -5 -19 2
-24 8 -4 8 -9 0 -17 -6 -6 -11 -16 -11 -21 0 -6 4 -5 9 3 5 8 8 -7 7 -42 0
-33 -5 -53 -11 -50 -5 3 -4 0 3 -8 6 -7 12 -20 12 -28 0 -13 -2 -13 -9 -2 -6
9 -8 5 -8 -14 0 -19 2 -23 8 -14 7 12 7 -18 -1 -56 -1 -5 -2 -12 -1 -15 7 -19
7 -79 0 -68 -6 9 -9 9 -9 1 0 -6 5 -15 10 -18 6 -3 10 -13 10 -21 0 -10 -5
-12 -12 -8 -10 6 -10 4 -3 -7 9 -13 10 -30 4 -121 -1 -16 -5 -28 -10 -28 -5 0
-6 -6 -3 -14 6 -15 -15 -39 -49 -58 -12 -6 -54 -12 -94 -13 -85 -2 -98 -12
-98 -77 1 -27 -3 -44 -9 -41 -5 4 -6 1 -2 -6 10 -15 15 -122 6 -116 -4 2 -7
-2 -7 -10 0 -8 4 -12 9 -9 4 3 7 -11 6 -30 -2 -20 -7 -36 -13 -36 -5 0 -4 -4
2 -8 9 -6 10 -17 4 -40 -6 -20 -6 -30 0 -27 5 4 9 -12 9 -34 0 -26 -5 -41 -12
-41 -9 0 -10 -3 -2 -8 6 -4 10 -38 9 -87 -2 -79 -2 -80 33 -117 20 -21 36 -46
37 -57 1 -15 -5 -18 -41 -17 -23 0 -40 5 -37 9 3 5 -3 4 -14 -1 -11 -6 -35 -9
-54 -8 -19 2 -43 -1 -53 -7 -15 -7 -18 -6 -13 6 4 11 2 14 -8 10 -8 -3 -13 -8
-11 -12 7 -11 -85 -4 -97 8 -8 8 -8 11 1 11 7 0 12 7 12 15 0 8 5 15 10 15 6
0 10 6 10 13 0 16 34 50 42 41 3 -3 9 0 14 7 4 8 3 10 -4 5 -16 -10 -15 16 1
33 6 8 8 11 2 8 -13 -7 -14 202 -1 222 6 10 6 12 -2 7 -9 -5 -11 3 -10 28 2
20 7 36 11 36 4 0 3 10 -4 21 -6 12 -7 19 -2 16 5 -4 10 0 10 8 0 8 -4 12 -8
9 -5 -3 -7 20 -6 50 1 30 4 53 7 51 3 -2 7 6 7 18 2 17 0 19 -7 7 -7 -11 -10
-8 -10 15 0 23 3 27 10 15 15 -21 2 35 -16 75 l-14 31 -110 -2 c-77 -1 -107 2
-103 10 5 8 3 8 -8 0 -8 -6 -24 -10 -37 -9 -13 1 -25 -2 -28 -7 -3 -4 -9 -6
-13 -4 -4 3 -8 -7 -9 -22 -1 -14 -8 -29 -15 -34 -6 -4 -7 -8 -2 -8 6 0 10 -31
10 -74 0 -42 -4 -72 -9 -69 -5 4 -5 0 0 -8 12 -20 12 -89 -1 -89 -7 0 -7 -3 0
-8 12 -8 14 -173 3 -165 -5 2 -4 -6 0 -19 4 -13 8 -45 8 -73 -1 -39 -4 -49
-16 -47 -11 3 -9 -3 5 -20 11 -13 26 -27 33 -31 6 -4 12 -14 12 -20 0 -7 9
-20 20 -30 28 -23 16 -47 -18 -38 -15 4 -39 4 -54 0 -14 -4 -29 -5 -32 -2 -8
8 -91 7 -104 -1 -6 -3 -13 -3 -16 2 -2 4 -22 7 -44 5 -58 -3 -62 20 -12 68 27
26 40 48 42 68 1 17 6 31 11 31 5 0 4 7 -4 16 -10 13 -10 17 2 25 8 5 9 9 2 9
-12 0 -11 38 1 58 4 7 3 12 -2 12 -6 0 -10 22 -9 49 1 27 4 48 8 46 3 -2 6 2
6 10 0 8 -3 12 -7 10 -8 -5 -5 85 4 106 4 10 3 20 -3 24 -6 3 -11 13 -11 21 0
9 5 12 12 8 7 -4 8 -3 4 5 -11 18 -18 63 -8 57 5 -3 9 1 9 9 0 8 -3 12 -7 10
-4 -2 -6 13 -5 33 1 20 -3 47 -8 60 -10 22 -17 24 -74 25 -18 0 -33 3 -33 7 0
4 -8 7 -17 7 -35 0 -41 4 -68 45 -26 39 -28 48 -27 154 0 62 2 117 6 122 3 6
2 13 -2 16 -5 3 -6 26 -2 51 4 25 4 48 0 50 -5 3 -4 20 0 39 4 19 5 37 2 40
-9 10 -8 106 1 106 5 0 3 8 -4 17 -12 14 -12 16 1 9 8 -5 5 2 -7 15 -22 23
-24 23 -52 6 -15 -9 -32 -13 -36 -9 -5 4 -5 2 -2 -5 7 -11 -145 -173 -163
-173 -6 0 -9 -6 -8 -12 2 -7 -3 -12 -9 -10 -7 1 -13 -2 -13 -8 0 -16 -130
-141 -141 -135 -5 4 -8 3 -7 -2 3 -8 -110 -153 -119 -153 -3 0 0 7 7 15 7 8 8
15 3 15 -6 0 -9 12 -8 27 1 16 -7 44 -17 63 -16 30 -25 36 -56 38 -20 1 -46 4
-57 6 -11 3 -22 5 -24 5 -3 1 17 15 43 33 26 17 50 37 53 44 3 8 9 11 14 8 5
-3 9 0 9 6 0 14 126 140 134 134 3 -2 4 -1 1 3 -8 10 16 33 29 26 6 -3 8 -3 4
1 -11 12 54 77 70 71 13 -5 13 -3 1 12 -9 11 -10 14 -1 9 7 -4 12 -2 12 5 0 7
3 10 6 6 3 -3 19 10 36 29 16 19 34 32 38 29 4 -3 7 3 6 13 0 9 5 16 12 15 6
-2 12 1 12 6 0 5 35 44 77 88 42 43 73 72 68 64 -5 -10 -4 -12 3 -7 7 4 12 13
12 19 0 7 16 28 36 47 29 29 35 42 34 75 -3 66 -1 77 12 69 7 -4 8 -3 4 5 -10
15 13 43 27 34 6 -3 7 -1 3 5 -7 12 47 45 58 35 3 -4 6 -1 6 7 0 10 3 10 15 0
12 -10 15 -10 15 1 0 11 2 11 10 -1 5 -8 10 -10 10 -4 0 10 32 12 65 4 6 -1
12 -1 15 0 17 7 62 5 67 -3 4 -6 1 -7 -7 -2 -9 6 -11 4 -5 -5 6 -10 11 -9 21
4 8 11 14 13 19 6 3 -5 12 -7 18 -3 7 4 31 8 55 8 23 0 42 5 43 10 0 6 6 16
12 24 7 8 8 12 2 9 -8 -5 -10 59 -3 108 3 26 -25 75 -40 69 -8 -3 -22 0 -30 7
-10 8 -13 9 -9 1 8 -13 -18 -12 -30 2 -5 4 -1 5 7 0 8 -5 12 -4 7 0 -12 13
-37 15 -34 2 2 -13 -23 -17 -38 -6 -6 4 -17 4 -25 -1 -8 -5 -21 -5 -32 1 -10
5 -18 7 -18 3 0 -3 -7 -1 -15 6 -9 8 -13 21 -10 34 4 13 3 16 -2 9 -15 -21
-35 5 -37 49 0 9 -4 14 -8 12 -11 -7 -10 4 3 28 7 13 7 18 1 14 -11 -7 -11 32
0 50 4 5 3 16 -2 24 -4 7 -5 23 0 35 5 12 4 28 -1 36 -12 20 -11 32 3 23 6 -4
8 -3 5 3 -11 18 -18 75 -8 69 10 -6 5 39 -5 56 -3 4 1 8 8 9 10 0 11 2 0 6
-10 4 -10 8 0 21 7 9 9 13 3 10 -6 -4 -10 29 -10 92 0 63 4 96 10 92 6 -3 4 2
-4 11 -11 14 -11 17 0 18 9 0 10 2 2 5 -14 6 9 80 25 77 5 -1 8 7 5 17 -4 13
0 20 10 20 8 0 19 6 25 13 6 7 20 13 32 14 19 2 20 0 8 -15z"/>
<path d="M1236 3198 c3 -5 10 -6 15 -3 13 9 11 12 -6 12 -8 0 -12 -4 -9 -9z"/>
<path d="M1315 3189 c-4 -6 -5 -12 -2 -15 2 -3 7 2 10 11 7 17 1 20 -8 4z"/>
<path d="M1686 3166 c3 -9 1 -16 -4 -16 -6 0 -22 -11 -35 -24 -14 -14 -28 -23
-31 -20 -3 2 -4 1 -1 -3 7 -9 -16 -34 -26 -27 -5 3 -9 -2 -9 -11 0 -9 -3 -14
-7 -12 -10 5 -43 -30 -35 -37 3 -3 0 -6 -5 -6 -19 0 1 -53 21 -56 25 -4 25 -5
29 -57 1 -27 10 -54 21 -66 11 -12 15 -25 10 -33 -6 -10 -4 -10 9 1 11 8 17 9
17 3 0 -7 7 -9 17 -5 9 4 14 2 10 -3 -3 -6 9 -9 27 -9 31 1 85 31 86 48 0 5 4
5 10 2 6 -4 7 1 3 11 -4 10 -2 15 4 11 5 -3 10 0 10 8 0 8 -5 11 -11 8 -7 -4
-7 -1 0 6 13 14 7 51 -7 51 -5 0 -9 6 -9 14 0 7 -10 20 -22 28 -21 14 -21 16
-6 31 8 9 18 14 20 11 3 -2 10 7 16 21 15 32 4 32 -31 -1 -27 -25 -29 -25 -47
-9 -18 17 -21 16 -67 -23 -48 -39 -49 -40 -71 -22 -12 10 -22 20 -22 22 0 2
32 32 71 67 l70 64 40 -39 c28 -28 42 -35 50 -27 8 8 -2 20 -35 44 -25 19 -45
39 -46 46 0 6 -4 15 -10 18 -6 3 -7 -1 -4 -9z m24 -172 c0 -2 -7 -4 -15 -4 -8
0 -15 4 -15 10 0 5 7 7 15 4 8 -4 15 -8 15 -10z m44 -54 c25 -25 25 -76 0
-101 -11 -11 -36 -22 -56 -26 -30 -4 -41 -1 -62 20 -57 57 -10 146 69 132 16
-3 39 -14 49 -25z"/>
<path d="M1661 2902 c-8 -15 -7 -23 4 -32 23 -19 50 -8 50 20 0 32 -39 41 -54
12z"/>
<path d="M1296 3137 c-14 -15 -26 -24 -26 -21 0 3 -13 -10 -30 -28 -31 -34
-37 -48 -19 -48 5 0 7 -4 4 -10 -3 -5 -2 -10 4 -10 5 0 17 -7 26 -16 12 -12
13 -19 4 -30 -6 -8 -16 -11 -23 -7 -6 3 -8 3 -4 -2 4 -4 2 -17 -5 -29 -16 -28
-18 -67 -6 -83 6 -6 7 -18 3 -24 -4 -8 -3 -9 5 -5 6 4 14 0 17 -8 3 -9 14 -16
24 -16 11 0 21 -4 24 -9 4 -6 21 -5 42 1 28 7 39 7 46 -4 6 -9 7 -5 2 12 -3
14 -3 22 1 18 4 -4 16 2 26 14 17 18 23 18 21 -3 -1 -3 5 -6 13 -6 10 0 8 8
-7 30 -12 17 -17 27 -10 23 7 -4 12 -1 12 8 0 9 -4 16 -8 16 -13 0 -8 36 7 54
11 13 16 14 29 4 13 -11 14 -11 8 0 -4 7 -2 19 4 27 9 11 8 21 -6 45 -10 16
-24 30 -30 30 -6 0 -19 10 -28 23 -9 12 -14 15 -11 7 6 -13 5 -13 -7 0 -8 8
-28 28 -45 44 l-32 28 -25 -25z m99 -71 l70 -64 -25 -20 -24 -20 -43 36 c-24
20 -43 41 -43 46 0 5 -10 0 -22 -12 -23 -20 -23 -20 -47 -1 l-24 20 38 39 c22
22 42 40 45 40 3 0 36 -29 75 -64z m-55 -73 c0 -3 -6 -3 -12 0 -7 2 -22 0 -33
-5 -19 -9 -19 -8 -2 6 17 13 47 12 47 -1z m36 -46 c54 -47 27 -121 -48 -134
-30 -4 -41 -1 -62 20 -75 75 30 182 110 114z"/>
<path d="M1302 2911 c-20 -12 -10 -45 14 -49 29 -4 51 23 34 43 -14 17 -29 19
-48 6z"/>
<path d="M1406 3142 c-2 -4 -1 -14 4 -22 7 -11 9 -9 7 8 -1 24 -3 26 -11 14z"/>
<path d="M1163 2893 c0 -9 4 -10 14 -2 7 6 13 12 13 14 0 1 -6 2 -13 2 -8 0
-14 -6 -14 -14z"/>
<path d="M1806 2758 c3 -5 10 -6 15 -3 13 9 11 12 -6 12 -8 0 -12 -4 -9 -9z"/>
<path d="M1836 2742 c-3 -5 1 -9 9 -9 8 0 12 4 9 9 -3 4 -7 8 -9 8 -2 0 -6 -4
-9 -8z"/>
<path d="M1457 2720 c-14 -16 -21 -18 -37 -10 -14 8 -21 7 -27 -5 -5 -8 -21
-16 -35 -17 -15 -1 -24 -6 -21 -11 7 -11 -29 -37 -41 -30 -5 4 -6 1 -3 -4 4
-6 0 -25 -9 -42 -8 -17 -12 -36 -8 -42 5 -8 3 -9 -5 -4 -7 4 -2 -13 10 -36 22
-44 54 -79 72 -79 5 0 6 -7 3 -16 -5 -14 -4 -15 9 -4 12 10 18 10 30 0 17 -14
165 -21 165 -8 0 11 23 6 32 -7 4 -6 8 -2 8 8 0 9 5 17 10 17 6 0 27 16 47 35
20 19 32 35 27 35 -5 0 -3 4 4 8 18 12 21 81 5 98 -8 8 -11 14 -6 14 4 0 0 5
-10 11 -9 6 -14 16 -11 22 4 7 4 9 -1 5 -4 -4 -14 0 -22 10 -10 11 -12 12 -8
2 5 -12 4 -12 -7 1 -7 9 -16 16 -20 15 -4 -1 -16 7 -28 16 -13 12 -20 14 -20
5 0 -8 -4 -7 -10 3 -7 11 -10 11 -10 2 0 -9 -5 -10 -16 -4 -9 5 -26 7 -37 4
-16 -4 -19 -2 -14 11 8 22 5 21 -16 -3z m144 -60 c46 -24 79 -65 79 -97 0
-126 -238 -179 -346 -78 -28 27 -34 40 -34 73 0 62 45 101 145 126 35 8 116
-4 156 -24z"/>
<path d="M1156 2433 c-6 -14 -5 -15 5 -6 7 7 10 15 7 18 -3 3 -9 -2 -12 -12z"/>
<path d="M1871 2394 c0 -11 3 -14 6 -6 3 7 2 16 -1 19 -3 4 -6 -2 -5 -13z"/>
<path d="M1086 2128 c3 -5 10 -6 15 -3 13 9 11 12 -6 12 -8 0 -12 -4 -9 -9z"/>
<path d="M1206 2098 c3 -5 10 -6 15 -3 13 9 11 12 -6 12 -8 0 -12 -4 -9 -9z"/>
<path d="M1899 2077 c6 -8 7 -18 3 -22 -4 -5 -1 -5 6 -1 10 6 10 11 1 22 -6 8
-14 14 -16 14 -3 0 0 -6 6 -13z"/>
<path d="M1831 2004 c0 -11 3 -14 6 -6 3 7 2 16 -1 19 -3 4 -6 -2 -5 -13z"/>
<path d="M1461 1923 c-7 -7 -16 -11 -21 -8 -16 10 12 -59 33 -82 11 -13 17
-23 13 -23 -5 0 -3 -6 3 -14 13 -15 35 -16 48 -1 4 4 3 5 -3 2 -7 -4 -17 0
-24 7 -9 12 -7 17 9 25 11 6 26 24 34 40 14 27 13 31 -7 48 -25 22 -67 25 -85
6z m57 -15 c28 -28 -3 -83 -33 -58 -8 7 -15 20 -15 29 0 17 18 41 30 41 3 0
11 -5 18 -12z"/>
<path d="M1203 1857 c0 -8 6 -14 14 -14 9 0 10 4 2 14 -6 7 -12 13 -14 13 -1
0 -2 -6 -2 -13z"/>
<path d="M1973 1787 c-3 -6 -1 -7 5 -3 5 3 12 1 14 -6 3 -8 6 -7 10 3 7 17
-19 22 -29 6z"/>
<path d="M1096 1702 c-3 -5 1 -9 9 -9 8 0 12 4 9 9 -3 4 -7 8 -9 8 -2 0 -6 -4
-9 -8z"/>
<path d="M1458 1686 c-24 -34 -29 -84 -5 -70 9 6 9 5 0 -7 -10 -13 -10 -16 0
-17 6 0 22 -3 35 -6 12 -2 22 0 22 5 0 6 5 7 10 4 6 -3 10 -1 10 5 0 6 4 9 8
6 5 -3 9 0 9 7 0 7 3 23 7 37 6 19 5 21 -3 10 -9 -12 -11 -11 -11 7 0 22 -26
43 -52 43 -7 0 -20 -11 -30 -24z m62 -57 c-12 -22 -31 -24 -48 -7 -17 17 -15
34 5 53 16 16 18 16 35 -5 13 -17 15 -26 8 -41z"/>
<path d="M2303 1663 c0 -9 4 -10 14 -2 7 6 13 12 13 14 0 1 -6 2 -13 2 -8 0
-14 -6 -14 -14z"/>
<path d="M950 1651 c0 -6 4 -13 10 -16 6 -3 7 1 4 9 -7 18 -14 21 -14 7z"/>
<path d="M631 1557 c-8 -10 -7 -14 2 -14 8 0 14 6 14 14 0 7 -1 13 -2 13 -2 0
-8 -6 -14 -13z"/>
<path d="M510 1540 c-12 -7 -10 -9 7 -7 12 0 19 5 17 9 -6 10 -6 10 -24 -2z"/>
<path d="M1041 1503 c-10 -26 -10 -27 4 -9 8 11 15 23 15 28 0 15 -7 8 -19
-19z"/>
<path d="M1406 1448 c3 -5 10 -6 15 -3 13 9 11 12 -6 12 -8 0 -12 -4 -9 -9z"/>
<path d="M1443 1446 c5 -12 -18 -38 -26 -29 -3 3 -3 -5 0 -18 5 -17 3 -20 -7
-14 -9 5 -11 4 -6 -4 4 -6 11 -9 15 -7 4 3 16 -9 26 -27 10 -17 20 -26 23 -19
2 7 7 10 12 7 4 -2 18 4 30 15 13 11 20 20 15 20 -4 0 -3 6 3 13 5 7 6 21 1
32 -4 11 -8 16 -8 11 -1 -5 -9 0 -18 10 -20 21 -67 29 -60 10z m57 -35 c20
-38 -16 -74 -44 -45 -15 15 -11 43 8 56 17 12 25 9 36 -11z"/>
<path d="M2365 1439 c-4 -6 -5 -12 -2 -15 2 -3 7 2 10 11 7 17 1 20 -8 4z"/>
<path d="M1426 1302 c-3 -5 1 -9 9 -9 8 0 12 4 9 9 -3 4 -7 8 -9 8 -2 0 -6 -4
-9 -8z"/>
<path d="M1501 1284 c0 -11 3 -14 6 -6 3 7 2 16 -1 19 -3 4 -6 -2 -5 -13z"/>
<path d="M456 1267 c3 -10 9 -15 12 -12 3 3 0 11 -7 18 -10 9 -11 8 -5 -6z"/>
<path d="M1983 1261 c0 -11 5 -18 9 -15 4 3 5 11 1 19 -7 21 -12 19 -10 -4z"/>
<path d="M359 1203 c-13 -16 -12 -17 4 -4 9 7 17 15 17 17 0 8 -8 3 -21 -13z"/>
<path d="M1124 1156 c1 -8 5 -18 8 -22 4 -3 5 1 4 10 -1 8 -5 18 -8 22 -4 3
-5 -1 -4 -10z"/>
<path d="M1296 1151 c-4 -5 -2 -12 3 -15 5 -4 12 -2 15 3 4 5 2 12 -3 15 -5 4
-12 2 -15 -3z"/>
<path d="M1305 1090 c-4 -6 -12 -7 -18 -4 -7 4 -8 3 -4 -1 13 -15 34 -14 34 1
0 17 -4 18 -12 4z"/>
<path d="M2051 1064 c0 -11 3 -14 6 -6 3 7 2 16 -1 19 -3 4 -6 -2 -5 -13z"/>
<path d="M1486 947 c3 -10 9 -15 12 -12 3 3 0 11 -7 18 -10 9 -11 8 -5 -6z"/>
<path d="M1620 931 c0 -6 4 -13 10 -16 6 -3 7 1 4 9 -7 18 -14 21 -14 7z"/>
<path d="M1236 848 c3 -5 10 -6 15 -3 13 9 11 12 -6 12 -8 0 -12 -4 -9 -9z"/>
<path d="M1285 791 c-3 -5 -2 -12 3 -15 5 -3 9 1 9 9 0 17 -3 19 -12 6z"/>
<path d="M1265 681 c-3 -5 -2 -12 3 -15 5 -3 9 1 9 9 0 17 -3 19 -12 6z"/>
<path d="M1280 641 c0 -6 4 -13 10 -16 6 -3 7 1 4 9 -7 18 -14 21 -14 7z"/>
<path d="M1615 219 c-4 -6 -5 -12 -2 -15 2 -3 7 2 10 11 7 17 1 20 -8 4z"/>
<path d="M1821 187 c-8 -10 -7 -14 2 -14 8 0 14 6 14 14 0 7 -1 13 -2 13 -2 0
-8 -6 -14 -13z"/>
<path d="M1870 180 c0 -5 5 -10 11 -10 5 0 7 5 4 10 -3 6 -8 10 -11 10 -2 0
-4 -4 -4 -10z"/>
</g>
</svg>
